<svg opacity="0.09" width="1694" height="1694" viewBox="0 0 1694 1694" fill="none" xmlns="http://www.w3.org/2000/svg">
    <path d="M1024.04 1411.28C1020.88 1408.71 1018.38 1405.28 1016.94 1401.16C1012.8 1389.3 1019.07 1376.33 1030.92 1372.2C1127.83 1338.36 1213.48 1278.16 1278.6 1198.11C1449.5 988.05 1445.05 687.279 1268.04 482.963C1259.81 473.483 1260.84 459.096 1270.34 450.889C1279.82 442.668 1294.19 443.681 1302.41 453.191C1393.95 558.842 1445.93 694.434 1448.79 834.987C1451.68 977.182 1403.77 1116.34 1313.89 1226.82C1243.45 1313.41 1150.8 1378.53 1045.92 1415.15C1038.18 1417.83 1029.97 1416.11 1024.04 1411.28Z" fill="url(#paint0_linear_1078_19566)"/>
    <path d="M953.755 1343.05C950.098 1340.07 947.316 1335.92 946.069 1330.99C942.991 1318.82 950.37 1306.45 962.551 1303.36C1061.34 1278.41 1147.66 1223.32 1212.16 1144.03C1332.02 996.704 1351.82 793.164 1262.6 625.472C1256.7 614.379 1260.9 600.602 1271.99 594.706C1283.09 588.81 1296.85 593.026 1302.76 604.103C1400.59 787.998 1378.87 1011.19 1247.45 1172.74C1176.73 1259.67 1082.07 1320.1 973.699 1347.47C966.46 1349.3 959.142 1347.43 953.755 1343.05Z" fill="url(#paint1_linear_1078_19566)"/>
    <path d="M893.875 1273.5C889.625 1270.04 886.607 1265.07 885.75 1259.22C883.898 1246.79 892.461 1235.22 904.874 1233.36C1001.36 1218.91 1088.43 1169.26 1150.06 1093.51C1266.05 950.924 1266.44 743.916 1150.98 601.279C1143.08 591.509 1144.59 577.193 1154.33 569.293C1164.1 561.389 1178.41 562.923 1186.32 572.646C1248.36 649.265 1282.74 746.059 1283.18 845.195C1283.63 945.705 1248.88 1044.08 1185.33 1122.2C1116.53 1206.76 1019.33 1262.21 911.597 1278.33C905.012 1279.33 898.653 1277.39 893.875 1273.5Z" fill="url(#paint2_linear_1078_19566)"/>
    <path d="M1091.88 1075.5C1082.14 1067.58 1080.65 1053.25 1088.59 1043.5C1197.01 910.225 1176.79 713.609 1043.52 605.185C1025.46 590.497 1005.83 577.841 985.201 567.599C973.97 562.021 969.365 548.365 974.957 537.117C980.548 525.869 994.191 521.281 1005.44 526.872C1029.09 538.615 1051.57 553.091 1072.24 569.911C1224.96 694.149 1248.14 919.49 1123.91 1072.21C1115.94 1081.96 1101.63 1083.43 1091.88 1075.5Z" fill="url(#paint3_linear_1078_19566)"/>
    <path d="M1029.43 1024.7C1019.69 1016.78 1018.21 1002.45 1026.14 992.699C1106.54 893.87 1091.54 748.043 992.716 667.644C982.979 659.723 981.491 645.399 989.426 635.646C997.346 625.91 1011.67 624.422 1021.42 632.356C1139.71 728.584 1157.65 903.092 1061.42 1021.38C1053.49 1031.16 1039.18 1032.63 1029.43 1024.7Z" fill="url(#paint4_linear_1078_19566)"/>
    <path d="M875.537 1030.12C871.913 1027.17 869.15 1023.06 867.893 1018.18C864.756 1006.02 872.055 993.611 884.217 990.474C914.966 982.526 941.871 965.237 961.987 940.509C1013.6 877.067 1003.97 783.464 940.532 731.853C930.796 723.932 929.308 709.608 937.242 699.855C945.176 690.102 959.487 688.631 969.24 696.565C1052.14 764.005 1064.71 886.319 997.275 969.217C970.98 1001.54 935.833 1024.11 895.614 1034.51C888.319 1036.38 880.957 1034.53 875.537 1030.12Z" fill="url(#paint5_linear_1078_19566)"/>
    <path d="M466.992 1313.88C293.486 1172.73 212.806 948.637 256.41 729.064C258.856 716.735 270.836 708.74 283.134 711.189C295.463 713.635 303.457 725.615 301.008 737.913C260.698 940.92 335.29 1148.1 495.7 1278.59C597.543 1361.45 725.796 1405.75 856.87 1403.33C869.436 1403.1 879.792 1413.08 880.027 1425.65C880.262 1438.22 870.277 1448.57 857.711 1448.81C715.91 1451.42 577.156 1403.5 466.992 1313.88Z" fill="url(#paint6_linear_1078_19566)"/>
    <path d="M521.044 1247.44C352.414 1110.26 287.58 880.383 359.708 675.418C363.878 663.562 376.871 657.35 388.711 661.507C400.554 665.693 406.78 678.67 402.623 690.51C336.849 877.4 395.978 1087.03 549.765 1212.14C645.447 1289.98 765.794 1326.83 888.639 1315.89C901.159 1314.77 912.194 1324.02 913.299 1336.53C914.404 1349.03 905.169 1360.08 892.662 1361.19C757.942 1373.2 625.969 1332.8 521.044 1247.44Z" fill="url(#paint7_linear_1078_19566)"/>
    <path d="M571.579 1185.31C410.477 1054.25 364.033 826.171 461.131 642.944C467.01 631.847 480.78 627.608 491.862 633.504C502.959 639.382 507.198 653.152 501.302 664.235C414.328 828.321 455.942 1032.63 600.256 1150.03C659.596 1198.3 730.997 1227.92 806.745 1235.66C819.239 1236.93 828.345 1248.11 827.062 1260.59C825.796 1273.09 814.623 1282.18 802.129 1280.91C717.545 1272.25 637.805 1239.19 571.579 1185.31Z" fill="url(#paint8_linear_1078_19566)"/>
    <path d="M621.574 1123.87C523.931 1044.43 475.001 917.706 493.863 793.125C495.742 780.719 507.332 772.161 519.754 774.053C532.16 775.933 540.719 787.522 538.826 799.945C522.366 908.684 565.063 1019.28 650.268 1088.6C722.886 1147.67 817.205 1170.85 909.051 1152.22C921.353 1149.71 933.358 1157.67 935.861 1169.98C938.364 1182.28 930.405 1194.28 918.102 1196.79C812.874 1218.14 704.785 1191.56 621.574 1123.87Z" fill="url(#paint9_linear_1078_19566)"/>
    <path d="M672.38 1061.41C584.605 990.007 549.303 873.954 582.442 765.78C586.129 753.776 598.855 747.018 610.842 750.692C622.845 754.379 629.6 767.075 625.929 779.091C598.223 869.483 627.728 966.446 701.071 1026.11C757.759 1072.23 831.051 1088.68 902.128 1071.24C914.335 1068.25 926.635 1075.71 929.64 1087.9C932.631 1100.11 925.17 1112.41 912.98 1115.42C827.932 1136.3 740.221 1116.6 672.38 1061.41Z" fill="url(#paint10_linear_1078_19566)"/>
    <path d="M724.584 997.249C676.99 958.53 650.345 898.772 653.305 837.419C653.902 824.873 664.575 815.186 677.108 815.799C689.67 816.41 699.341 827.07 698.727 839.602C696.462 886.573 716.85 932.316 753.291 961.961C763.028 969.882 764.516 984.206 756.581 993.959C748.647 1003.71 734.32 1005.17 724.584 997.249Z" fill="url(#paint11_linear_1078_19566)"/>
    <path d="M309.577 615.088C301.62 608.614 298.814 597.324 303.434 587.641C323.921 544.79 349.65 504.177 379.913 466.978C589.389 209.486 969.297 170.422 1226.81 379.911C1236.54 387.832 1238.03 402.156 1230.1 411.909C1222.16 421.662 1207.85 423.133 1198.1 415.199C960.062 221.551 608.848 257.65 415.187 495.702C387.203 530.1 363.393 567.647 344.461 607.274C339.044 618.609 325.466 623.387 314.131 617.971C312.465 617.191 310.944 616.2 309.577 615.088Z" fill="url(#paint12_linear_1078_19566)"/>
    <path d="M403.118 620.908C394.651 614.019 392.16 601.836 397.72 592.041C411.834 567.221 428.189 543.348 446.349 521.025C626.032 300.155 951.893 266.648 1172.76 446.331C1178.99 451.397 1185.18 456.679 1191.15 461.998C1200.52 470.364 1201.33 484.742 1192.95 494.103C1184.59 503.477 1170.13 504.254 1160.85 495.91C1155.4 491.036 1149.75 486.226 1144.05 481.589C942.639 317.734 645.488 348.289 481.633 549.703C465.068 570.065 450.13 591.86 437.271 614.498C431.072 625.416 417.183 629.229 406.249 623.017C405.116 622.424 404.074 621.685 403.118 620.908Z" fill="url(#paint13_linear_1078_19566)"/>
    <path d="M511.773 603.571C502.037 595.65 500.549 581.326 508.483 571.573C578.161 485.924 676.694 430.292 785.963 414.905C894.637 399.61 1004.07 425.342 1094.12 487.398C1104.44 494.458 1107.05 508.682 1099.93 519.015C1092.81 529.348 1078.65 531.952 1068.32 524.832C901.894 410.14 671.493 443.282 543.784 600.264C535.836 610.034 521.509 611.492 511.773 603.571Z" fill="url(#paint14_linear_1078_19566)"/>
    <path d="M562.14 667.926C552.832 660.354 550.977 646.716 558.136 636.908C561.906 631.734 565.889 626.57 569.95 621.578C648.165 525.434 768.369 477.221 891.489 492.595C903.967 494.15 912.79 505.516 911.248 517.978C909.707 530.439 898.327 539.278 885.865 537.737C778.405 524.316 673.495 566.382 605.237 650.285C601.686 654.651 598.209 659.16 594.902 663.697C587.508 673.862 573.274 676.08 563.139 668.684C562.78 668.419 562.453 668.181 562.14 667.926Z" fill="url(#paint15_linear_1078_19566)"/>
    <path d="M633.459 707.11C623.822 699.27 622.263 685.134 629.985 675.373C630.772 674.371 631.576 673.383 632.394 672.378C702.259 586.498 816.211 550.582 922.704 580.874C934.772 584.313 941.787 596.892 938.364 608.973C934.925 621.041 922.347 628.056 910.265 624.634C821.284 599.334 726.078 629.337 667.698 701.099C667.015 701.939 666.345 702.763 665.677 703.616C657.889 713.46 643.583 715.127 633.739 707.338C633.624 707.244 633.542 707.177 633.459 707.11Z" fill="url(#paint16_linear_1078_19566)"/>
    <path d="M699.842 756.57C690.106 748.649 688.618 734.325 696.552 724.572C732.537 680.339 785.895 654.291 842.957 653.104C855.52 652.839 865.906 662.821 866.155 675.37C866.42 687.933 856.438 698.319 843.889 698.568C800.202 699.467 759.365 719.412 731.823 753.266C723.906 763.032 709.595 764.504 699.842 756.57Z" fill="url(#paint17_linear_1078_19566)"/>
    <defs>
    <linearGradient id="paint0_linear_1078_19566" x1="1194.06" y1="1406.57" x2="1321.63" y2="520.53" gradientUnits="userSpaceOnUse">
    <stop stop-color="#FBB92F" stop-opacity="0"/>
    <stop offset="1" stop-color="#F9BB17"/>
    </linearGradient>
    <linearGradient id="paint1_linear_1078_19566" x1="1088.17" y1="1313.79" x2="1297.45" y2="730.205" gradientUnits="userSpaceOnUse">
    <stop stop-color="#FBCE68" stop-opacity="0"/>
    <stop offset="1" stop-color="#FBD263"/>
    </linearGradient>
    <linearGradient id="paint2_linear_1078_19566" x1="1032.36" y1="1250.15" x2="1206.11" y2="690.098" gradientUnits="userSpaceOnUse">
    <stop stop-color="#FBB92F" stop-opacity="0"/>
    <stop offset="1" stop-color="white"/>
    </linearGradient>
    <linearGradient id="paint3_linear_1078_19566" x1="1141.67" y1="1051.78" x2="1080.39" y2="631.563" gradientUnits="userSpaceOnUse">
    <stop stop-color="#FBB92F" stop-opacity="0"/>
    <stop offset="1" stop-color="#F9BB17"/>
    </linearGradient>
    <linearGradient id="paint4_linear_1078_19566" x1="1078.41" y1="923.775" x2="1006.27" y2="714.318" gradientUnits="userSpaceOnUse">
    <stop stop-color="#FBCE68" stop-opacity="0"/>
    <stop offset="1" stop-color="#FBD263"/>
    </linearGradient>
    <linearGradient id="paint5_linear_1078_19566" x1="941.779" y1="1006.67" x2="996.359" y2="693.817" gradientUnits="userSpaceOnUse">
    <stop stop-color="#FBB92F" stop-opacity="0"/>
    <stop offset="1" stop-color="white"/>
    </linearGradient>
    <linearGradient id="paint6_linear_1078_19566" x1="336.835" y1="858.704" x2="761.899" y2="1538.81" gradientUnits="userSpaceOnUse">
    <stop stop-color="#FBCE68" stop-opacity="0"/>
    <stop offset="1" stop-color="#FBD263"/>
    </linearGradient>
    <linearGradient id="paint7_linear_1078_19566" x1="373.29" y1="802.696" x2="761.916" y2="1374.5" gradientUnits="userSpaceOnUse">
    <stop stop-color="#FBB92F" stop-opacity="0"/>
    <stop offset="1" stop-color="white"/>
    </linearGradient>
    <linearGradient id="paint8_linear_1078_19566" x1="441.296" y1="751.049" x2="663.1" y2="1189.09" gradientUnits="userSpaceOnUse">
    <stop stop-color="#FBB92F" stop-opacity="0"/>
    <stop offset="1" stop-color="#F9BB17"/>
    </linearGradient>
    <linearGradient id="paint9_linear_1078_19566" x1="519" y1="909.342" x2="874.024" y2="1171.94" gradientUnits="userSpaceOnUse">
    <stop stop-color="#FBCE68" stop-opacity="0"/>
    <stop offset="1" stop-color="#FBD263"/>
    </linearGradient>
    <linearGradient id="paint10_linear_1078_19566" x1="608.054" y1="873.932" x2="908.558" y2="1151.17" gradientUnits="userSpaceOnUse">
    <stop stop-color="#FBB92F" stop-opacity="0"/>
    <stop offset="1" stop-color="white"/>
    </linearGradient>
    <linearGradient id="paint11_linear_1078_19566" x1="682.369" y1="882.475" x2="809.063" y2="1024.87" gradientUnits="userSpaceOnUse">
    <stop stop-color="#FBB92F" stop-opacity="0"/>
    <stop offset="1" stop-color="#F9BB17"/>
    </linearGradient>
    <linearGradient id="paint12_linear_1078_19566" x1="1139.8" y1="282.832" x2="306.125" y2="550.187" gradientUnits="userSpaceOnUse">
    <stop stop-color="#FBB92F" stop-opacity="0"/>
    <stop offset="1" stop-color="white"/>
    </linearGradient>
    <linearGradient id="paint13_linear_1078_19566" x1="1061.47" y1="391.255" x2="450.881" y2="569.704" gradientUnits="userSpaceOnUse">
    <stop stop-color="#FBB92F" stop-opacity="0"/>
    <stop offset="1" stop-color="#F9BB17"/>
    </linearGradient>
    <linearGradient id="paint14_linear_1078_19566" x1="1014.16" y1="448.636" x2="564.062" y2="570.823" gradientUnits="userSpaceOnUse">
    <stop stop-color="#FBCE68" stop-opacity="0"/>
    <stop offset="1" stop-color="#FBD263"/>
    </linearGradient>
    <linearGradient id="paint15_linear_1078_19566" x1="843.458" y1="494.62" x2="615.635" y2="651.785" gradientUnits="userSpaceOnUse">
    <stop stop-color="#FBB92F" stop-opacity="0"/>
    <stop offset="1" stop-color="white"/>
    </linearGradient>
    <linearGradient id="paint16_linear_1078_19566" x1="861.806" y1="592.946" x2="682.987" y2="681.817" gradientUnits="userSpaceOnUse">
    <stop stop-color="#FBB92F" stop-opacity="0"/>
    <stop offset="1" stop-color="#F9BB17"/>
    </linearGradient>
    <linearGradient id="paint17_linear_1078_19566" x1="833.105" y1="663.791" x2="721.442" y2="746.661" gradientUnits="userSpaceOnUse">
    <stop stop-color="#FBCE68" stop-opacity="0"/>
    <stop offset="1" stop-color="#FBD263"/>
    </linearGradient>
    </defs>
    </svg>
    