<svg width="19" height="18" viewBox="0 0 19 18" fill="none" xmlns="http://www.w3.org/2000/svg">
<path fill-rule="evenodd" clip-rule="evenodd" d="M17.8431 9.20419C17.8431 8.56601 17.7859 7.95237 17.6795 7.36328H9.20312V10.8446H14.0468C13.8381 11.9696 13.204 12.9228 12.2509 13.561V15.8192H15.1595C16.8613 14.2524 17.8431 11.9451 17.8431 9.20419Z" fill="#4285F4"/>
<path fill-rule="evenodd" clip-rule="evenodd" d="M9.20288 18C11.6329 18 13.6702 17.1941 15.1592 15.8195L12.2506 13.5613C11.4447 14.1013 10.4138 14.4204 9.20288 14.4204C6.85879 14.4204 4.8747 12.8372 4.16697 10.71H1.16016V13.0418C2.64107 15.9831 5.6847 18 9.20288 18Z" fill="#34A853"/>
<path fill-rule="evenodd" clip-rule="evenodd" d="M4.16722 10.7098C3.98722 10.1698 3.88494 9.59301 3.88494 8.99983C3.88494 8.40664 3.98722 7.82983 4.16722 7.28983V4.95801H1.1604C0.550852 6.17301 0.203125 7.54755 0.203125 8.99983C0.203125 10.4521 0.550852 11.8266 1.1604 13.0416L4.16722 10.7098Z" fill="#FBBC05"/>
<path fill-rule="evenodd" clip-rule="evenodd" d="M9.20288 3.57955C10.5242 3.57955 11.7106 4.03364 12.6433 4.92545L15.2247 2.34409C13.6661 0.891818 11.6288 0 9.20288 0C5.6847 0 2.64107 2.01682 1.16016 4.95818L4.16697 7.29C4.8747 5.16273 6.85879 3.57955 9.20288 3.57955Z" fill="#EA4335"/>
</svg>
