<svg width="584" height="675" viewBox="0 0 584 675" fill="none" xmlns="http://www.w3.org/2000/svg">
<path d="M11.7684 230.328C8.66708 230.328 5.85189 228.215 5.08579 225.058C1.70757 211.083 0 196.638 0 182.138C0 81.705 81.705 0 182.138 0C185.941 0 189.014 3.08286 189.014 6.87643C189.014 10.67 185.931 13.7529 182.138 13.7529C89.2921 13.7529 13.7621 89.2829 13.7621 182.129C13.7621 195.549 15.3404 208.905 18.4695 221.818C19.3648 225.51 17.0942 229.23 13.3929 230.125C12.8483 230.264 12.3037 230.328 11.7684 230.328Z" fill="url(#paint0_linear_1614_22405)"/>
<path d="M34.8347 213.834C31.5303 213.834 28.6228 211.453 28.0598 208.084C26.6384 199.564 25.9092 190.833 25.9092 182.138C25.9092 95.9932 95.9934 25.9089 182.138 25.9089C184.566 25.9089 187.03 25.9643 189.439 26.0751C193.233 26.2505 196.168 29.4718 195.992 33.2653C195.817 37.0589 192.577 40.0125 188.802 39.8187C186.596 39.7172 184.353 39.6618 182.129 39.6618C103.571 39.6618 39.662 103.571 39.662 182.129C39.662 190.076 40.3174 198.041 41.6188 205.813C42.2465 209.561 39.7174 213.105 35.97 213.733C35.5916 213.806 35.2131 213.834 34.8347 213.834Z" fill="url(#paint1_linear_1614_22405)"/>
<path d="M57.0239 189.014C53.2211 189.014 50.1475 185.931 50.1475 182.138C50.1475 148.734 62.6543 116.862 85.3603 92.3842C107.946 68.0444 138.544 53.1931 171.523 50.5626C175.299 50.2487 178.621 53.0824 178.926 56.876C179.231 60.6603 176.406 63.9831 172.613 64.2785C111.657 69.1336 63.9096 120.905 63.9096 182.138C63.9003 185.941 60.8175 189.014 57.0239 189.014Z" fill="url(#paint2_linear_1614_22405)"/>
<path d="M81.1218 194.506C77.4851 194.506 74.4484 191.663 74.2546 187.99C74.153 186.051 74.0977 184.085 74.0977 182.138C74.0977 144.636 93.1025 110.374 124.937 90.4736C128.158 88.4614 132.404 89.4398 134.416 92.6611C136.429 95.8824 135.45 100.128 132.229 102.14C104.446 119.512 87.8598 149.417 87.8598 182.138C87.8598 183.845 87.9059 185.562 87.9982 187.261C88.2013 191.054 85.2845 194.294 81.491 194.497C81.371 194.497 81.251 194.506 81.1218 194.506Z" fill="url(#paint3_linear_1614_22405)"/>
<path d="M105.353 190.085C101.597 190.085 98.5232 187.067 98.477 183.301C98.4678 182.913 98.4678 182.526 98.4678 182.138C98.4678 148.642 118.349 118.459 149.132 105.233C152.621 103.737 156.673 105.343 158.168 108.842C159.673 112.331 158.057 116.383 154.559 117.878C128.844 128.926 112.23 154.152 112.23 182.138C112.23 182.461 112.23 182.784 112.239 183.116C112.294 186.919 109.249 190.039 105.455 190.085C105.418 190.085 105.381 190.085 105.353 190.085Z" fill="url(#paint4_linear_1614_22405)"/>
<path d="M130.374 189.014C126.571 189.014 123.497 185.931 123.497 182.138C123.497 164.887 131.047 148.586 144.209 137.409C147.108 134.944 151.446 135.304 153.91 138.202C156.366 141.101 156.015 145.439 153.117 147.903C143.037 156.46 137.259 168.939 137.259 182.138C137.25 185.941 134.176 189.014 130.374 189.014Z" fill="url(#paint5_linear_1614_22405)"/>
<path d="M520.622 538.903C488.421 591.638 430.074 622.04 368.346 618.246C364.88 618.036 362.246 615.055 362.457 611.59C362.667 608.124 365.648 605.491 369.114 605.701C426.18 609.206 480.122 581.101 509.89 532.35C528.788 501.4 536.155 464.644 530.635 428.856C530.106 425.423 532.457 422.218 535.887 421.695C539.314 421.161 542.526 423.517 543.048 426.947C549.03 465.663 541.066 505.421 520.622 538.903Z" fill="url(#paint6_linear_1614_22405)"/>
<path d="M500.432 526.572C469.136 577.826 408.615 604.106 349.834 591.962C346.44 591.262 344.252 587.941 344.956 584.539C345.66 581.138 348.977 578.957 352.378 579.661C405.982 590.728 461.17 566.761 489.708 520.024C507.464 490.945 513.084 456.627 505.532 423.41C504.763 420.027 506.879 416.659 510.262 415.89C513.644 415.122 517.012 417.238 517.781 420.62C526.063 457.057 519.906 494.681 500.432 526.572Z" fill="url(#paint7_linear_1614_22405)"/>
<path d="M481.55 515.048C451.655 564.008 390.938 585.191 337.177 565.408C333.92 564.209 332.255 560.596 333.45 557.346C334.649 554.089 338.262 552.424 341.512 553.619C389.654 571.334 444.033 552.363 470.814 508.503C481.829 490.464 487.285 469.821 486.593 448.8C486.478 445.333 489.198 442.432 492.664 442.317C496.131 442.203 499.032 444.922 499.147 448.389C499.93 471.864 493.843 494.916 481.55 515.048Z" fill="url(#paint8_linear_1614_22405)"/>
<path d="M462.872 503.638C444.751 533.315 411.881 551.408 377.076 550.871C373.605 550.816 370.836 547.96 370.892 544.489C370.943 541.024 373.803 538.249 377.275 538.304C407.649 538.772 436.337 522.983 452.152 497.083C465.631 475.009 468.474 448.327 459.963 423.875C458.822 420.601 460.555 417.019 463.829 415.878C467.103 414.737 470.686 416.47 471.827 419.744C481.577 447.777 478.313 478.349 462.872 503.638Z" fill="url(#paint9_linear_1614_22405)"/>
<path d="M443.887 492.053C427.598 518.73 397.139 532.697 366.299 527.64C362.878 527.081 360.557 523.847 361.115 520.426C361.674 517.005 364.908 514.685 368.329 515.243C394.107 519.47 419.548 507.801 433.163 485.505C443.686 468.271 445.464 447.604 438.052 428.79C436.782 425.566 438.37 421.914 441.594 420.644C444.819 419.374 448.47 420.962 449.74 424.187C458.609 446.694 456.479 471.432 443.887 492.053Z" fill="url(#paint10_linear_1614_22405)"/>
<path d="M424.385 480.14C415.553 494.604 400.185 504.119 383.274 505.583C379.815 505.88 376.775 503.323 376.474 499.871C376.177 496.411 378.734 493.371 382.186 493.07C395.126 491.946 406.897 484.668 413.656 473.599C415.466 470.635 419.331 469.707 422.287 471.512C425.243 473.317 426.19 477.184 424.385 480.14Z" fill="url(#paint11_linear_1614_22405)"/>
<defs>
<linearGradient id="paint0_linear_1614_22405" x1="143.183" y1="-6.17328" x2="-1.43494" y2="215.754" gradientUnits="userSpaceOnUse">
<stop stop-color="#FBB92F" stop-opacity="0"/>
<stop offset="1" stop-color="white"/>
</linearGradient>
<linearGradient id="paint1_linear_1614_22405" x1="145.501" y1="34.2312" x2="36.2682" y2="192.695" gradientUnits="userSpaceOnUse">
<stop stop-color="white" stop-opacity="0"/>
<stop offset="1" stop-color="#F9BB19"/>
</linearGradient>
<linearGradient id="paint2_linear_1614_22405" x1="145.351" y1="56.7305" x2="63.0416" y2="171.348" gradientUnits="userSpaceOnUse">
<stop stop-color="#F9BB19"/>
<stop offset="1" stop-color="white"/>
</linearGradient>
<linearGradient id="paint3_linear_1614_22405" x1="114.064" y1="100.117" x2="90.6016" y2="180.503" gradientUnits="userSpaceOnUse">
<stop stop-color="#FBB92F" stop-opacity="0"/>
<stop offset="1" stop-color="white"/>
</linearGradient>
<linearGradient id="paint4_linear_1614_22405" x1="137.15" y1="119.69" x2="112.15" y2="174.691" gradientUnits="userSpaceOnUse">
<stop stop-color="#FBB92F" stop-opacity="0"/>
<stop offset="1" stop-color="#F9BB17"/>
</linearGradient>
<linearGradient id="paint5_linear_1614_22405" x1="143.935" y1="141.798" x2="133.55" y2="182.568" gradientUnits="userSpaceOnUse">
<stop stop-color="#FBCE68" stop-opacity="0"/>
<stop offset="1" stop-color="#FBD263"/>
</linearGradient>
<linearGradient id="paint6_linear_1614_22405" x1="400.853" y1="591.425" x2="571.252" y2="449.829" gradientUnits="userSpaceOnUse">
<stop stop-color="white" stop-opacity="0"/>
<stop offset="1" stop-color="#F9BB19"/>
</linearGradient>
<linearGradient id="paint7_linear_1614_22405" x1="384.169" y1="583.522" x2="526.273" y2="455.92" gradientUnits="userSpaceOnUse">
<stop stop-color="#FBB92F" stop-opacity="0"/>
<stop offset="1" stop-color="white"/>
</linearGradient>
<linearGradient id="paint8_linear_1614_22405" x1="367.507" y1="566.825" x2="479.184" y2="489.853" gradientUnits="userSpaceOnUse">
<stop stop-color="#FBB92F" stop-opacity="0"/>
<stop offset="1" stop-color="#F9BB17"/>
</linearGradient>
<linearGradient id="paint9_linear_1614_22405" x1="407.954" y1="539.678" x2="466.663" y2="432.748" gradientUnits="userSpaceOnUse">
<stop stop-color="#F9BB19"/>
<stop offset="1" stop-color="white" stop-opacity="0.14"/>
</linearGradient>
<linearGradient id="paint10_linear_1614_22405" x1="394.953" y1="516.618" x2="459.693" y2="424.07" gradientUnits="userSpaceOnUse">
<stop stop-color="#FBB92F" stop-opacity="0"/>
<stop offset="1" stop-color="white"/>
</linearGradient>
<linearGradient id="paint11_linear_1614_22405" x1="394.537" y1="495.957" x2="428.815" y2="455.991" gradientUnits="userSpaceOnUse">
<stop stop-color="#FBB92F" stop-opacity="0"/>
<stop offset="1" stop-color="#F9BB17"/>
</linearGradient>
</defs>
</svg>
