<svg width="240" height="272" viewBox="0 0 240 272" fill="none" xmlns="http://www.w3.org/2000/svg">
<path d="M187.464 156.449C158.192 204.389 105.152 232.025 49.0379 228.577C45.8874 228.386 43.4935 225.676 43.6848 222.526C43.8762 219.375 46.5856 216.981 49.7361 217.173C101.612 220.358 150.649 194.81 177.709 150.493C194.888 122.358 201.585 88.9443 196.567 56.4119C196.086 53.2903 198.224 50.377 201.341 49.902C204.456 49.4164 207.376 51.5583 207.851 54.6759C213.289 89.8709 206.049 126.013 187.464 156.449Z" fill="url(#paint0_linear_1912_29100)"/>
<path d="M169.11 145.241C140.661 191.833 85.6443 215.723 32.2093 204.683C29.1241 204.047 27.1346 201.028 27.7749 197.936C28.4151 194.844 31.4301 192.861 34.5219 193.501C83.2503 203.562 133.419 181.774 159.362 139.288C175.503 112.853 180.612 81.657 173.746 51.4608C173.047 48.3861 174.971 45.324 178.046 44.6252C181.12 43.9265 184.183 45.8501 184.881 48.9248C192.41 82.0482 186.813 116.25 169.11 145.241Z" fill="url(#paint1_linear_1912_29100)"/>
<path d="M151.946 134.764C124.77 179.271 69.5756 198.528 20.7038 180.544C17.7429 179.454 16.2298 176.17 17.3157 173.215C18.4056 170.254 21.6902 168.741 24.6445 169.827C68.4082 185.931 117.841 168.685 142.187 128.814C152.2 112.416 157.16 93.6504 156.53 74.5418C156.426 71.3903 158.898 68.7529 162.05 68.6486C165.201 68.5443 167.839 71.0165 167.943 74.168C168.655 95.5082 163.121 116.464 151.946 134.764Z" fill="url(#paint2_linear_1912_29100)"/>
<path d="M134.967 124.392C118.494 151.37 88.6135 167.817 56.9739 167.33C53.8183 167.279 51.3014 164.683 51.3522 161.527C51.399 158.378 53.999 155.855 57.1545 155.906C84.7663 156.33 110.845 141.978 125.222 118.433C137.475 98.3667 140.059 74.1117 132.323 51.8839C131.285 48.9078 132.861 45.6511 135.837 44.6139C138.813 43.5767 142.07 45.1523 143.107 48.1284C151.971 73.6116 149.004 101.403 134.967 124.392Z" fill="url(#paint3_linear_1912_29100)"/>
<path d="M117.709 113.861C102.901 138.111 75.2121 150.808 47.1768 146.211C44.0669 145.703 41.9573 142.763 42.4649 139.654C42.9726 136.544 45.9124 134.434 49.0223 134.942C72.4557 138.784 95.5834 128.177 107.96 107.908C117.526 92.2419 119.142 73.4542 112.404 56.3517C111.25 53.4207 112.693 50.1012 115.624 48.9468C118.555 47.7923 121.875 49.2358 123.029 52.1668C131.091 72.6273 129.155 95.115 117.709 113.861Z" fill="url(#paint4_linear_1912_29100)"/>
<path d="M99.9803 103.031C91.9516 116.18 77.981 124.83 62.6088 126.161C59.4639 126.431 56.7005 124.106 56.4266 120.968C56.1567 117.823 58.4814 115.059 61.6198 114.786C73.383 113.764 84.0833 107.148 90.2276 97.0851C91.8725 94.3913 95.3858 93.5475 98.0731 95.1884C100.76 96.8293 101.621 100.344 99.9803 103.031Z" fill="url(#paint5_linear_1912_29100)"/>
<defs>
<linearGradient id="paint0_linear_1912_29100" x1="78.5891" y1="204.195" x2="233.49" y2="75.4767" gradientUnits="userSpaceOnUse">
<stop stop-color="white" stop-opacity="0"/>
<stop offset="1" stop-color="#F9BB19"/>
</linearGradient>
<linearGradient id="paint1_linear_1912_29100" x1="63.4214" y1="197.011" x2="192.601" y2="81.014" gradientUnits="userSpaceOnUse">
<stop stop-color="#FBB92F" stop-opacity="0"/>
<stop offset="1" stop-color="white"/>
</linearGradient>
<linearGradient id="paint2_linear_1912_29100" x1="48.2753" y1="181.833" x2="149.795" y2="111.861" gradientUnits="userSpaceOnUse">
<stop stop-color="#FBB92F" stop-opacity="0"/>
<stop offset="1" stop-color="#F9BB17"/>
</linearGradient>
<linearGradient id="paint3_linear_1912_29100" x1="85.0436" y1="157.154" x2="138.413" y2="59.9497" gradientUnits="userSpaceOnUse">
<stop stop-color="#F9BB19"/>
<stop offset="1" stop-color="white" stop-opacity="0.14"/>
</linearGradient>
<linearGradient id="paint4_linear_1912_29100" x1="73.2249" y1="136.192" x2="132.077" y2="52.0607" gradientUnits="userSpaceOnUse">
<stop stop-color="#FBB92F" stop-opacity="0"/>
<stop offset="1" stop-color="white"/>
</linearGradient>
<linearGradient id="paint5_linear_1912_29100" x1="72.8468" y1="117.41" x2="104.008" y2="81.079" gradientUnits="userSpaceOnUse">
<stop stop-color="#FBB92F" stop-opacity="0"/>
<stop offset="1" stop-color="#F9BB17"/>
</linearGradient>
</defs>
</svg>
