<svg width="19" height="15" viewBox="0 0 19 15" fill="none" xmlns="http://www.w3.org/2000/svg">
<path d="M15.3938 2.05881C14.242 1.53031 13.0069 1.14094 11.7155 0.917928C11.692 0.913624 11.6685 0.92438 11.6564 0.945892C11.4975 1.22842 11.3216 1.597 11.1983 1.8867C9.80935 1.67875 8.42748 1.67875 7.06696 1.8867C6.94372 1.59056 6.76138 1.22842 6.60181 0.945892C6.5897 0.925097 6.56621 0.914341 6.54269 0.917928C5.25199 1.14023 4.01685 1.5296 2.86433 2.05881C2.85436 2.06311 2.8458 2.07029 2.84013 2.0796C0.497332 5.57969 -0.144458 8.99374 0.170383 12.3655C0.171808 12.382 0.181067 12.3977 0.193889 12.4078C1.7396 13.5429 3.23688 14.232 4.70636 14.6888C4.72988 14.696 4.7548 14.6874 4.76976 14.668C5.11737 14.1933 5.42723 13.6928 5.6929 13.1664C5.70858 13.1356 5.69362 13.099 5.66157 13.0869C5.17008 12.9004 4.70209 12.6731 4.25191 12.415C4.2163 12.3942 4.21345 12.3432 4.2462 12.3188C4.34094 12.2479 4.4357 12.174 4.52616 12.0994C4.54252 12.0858 4.56533 12.0829 4.58457 12.0915C7.54206 13.4418 10.7439 13.4418 13.6665 12.0915C13.6857 12.0822 13.7085 12.0851 13.7256 12.0987C13.8161 12.1733 13.9108 12.2479 14.0063 12.3188C14.039 12.3432 14.0369 12.3942 14.0013 12.415C13.5511 12.6781 13.0831 12.9004 12.5909 13.0861C12.5589 13.0983 12.5446 13.1356 12.5603 13.1664C12.8317 13.6921 13.1415 14.1926 13.4827 14.6673C13.497 14.6874 13.5226 14.696 13.5461 14.6888C15.0227 14.232 16.52 13.5429 18.0657 12.4078C18.0792 12.3977 18.0878 12.3827 18.0892 12.3662C18.466 8.4681 17.4581 5.08204 15.4173 2.08032C15.4124 2.07029 15.4038 2.06311 15.3938 2.05881ZM6.13456 10.3124C5.24415 10.3124 4.51048 9.49498 4.51048 8.49106C4.51048 7.48713 5.22992 6.66967 6.13456 6.66967C7.04629 6.66967 7.77286 7.49431 7.75861 8.49106C7.75861 9.49498 7.03917 10.3124 6.13456 10.3124ZM12.1393 10.3124C11.2489 10.3124 10.5153 9.49498 10.5153 8.49106C10.5153 7.48713 11.2347 6.66967 12.1393 6.66967C13.0511 6.66967 13.7776 7.49431 13.7634 8.49106C13.7634 9.49498 13.0511 10.3124 12.1393 10.3124Z" fill="white"/>
</svg>
