<svg width="19" height="19" viewBox="0 0 19 19" fill="none" xmlns="http://www.w3.org/2000/svg">
<g clip-path="url(#clip0_1078_19834)">
<path d="M9.86843 1.76182C12.3046 1.76182 12.5906 1.77268 13.5534 1.81612C14.4439 1.85594 14.9254 2.00435 15.2475 2.13105C15.6747 2.29756 15.9788 2.49303 16.2973 2.81158C16.6158 3.13013 16.8149 3.4342 16.9778 3.86134C17.1009 4.18351 17.2529 4.66495 17.2928 5.55543C17.3362 6.51832 17.3471 6.80428 17.3471 9.24045C17.3471 11.6766 17.3362 11.9626 17.2928 12.9255C17.2529 13.8159 17.1045 14.2974 16.9778 14.6196C16.8113 15.0467 16.6158 15.3508 16.2973 15.6693C15.9788 15.9879 15.6747 16.187 15.2475 16.3498C14.9254 16.4729 14.4439 16.625 13.5534 16.6648C12.5906 16.7082 12.3046 16.7191 9.86843 16.7191C7.43226 16.7191 7.14629 16.7082 6.18341 16.6648C5.29292 16.625 4.81148 16.4765 4.48932 16.3498C4.06217 16.1833 3.7581 15.9879 3.43956 15.6693C3.12101 15.3508 2.92192 15.0467 2.75902 14.6196C2.63595 14.2974 2.48391 13.8159 2.44409 12.9255C2.40066 11.9626 2.3898 11.6766 2.3898 9.24045C2.3898 6.80428 2.40066 6.51832 2.44409 5.55543C2.48391 4.66495 2.63233 4.18351 2.75902 3.86134C2.92554 3.4342 3.12101 3.13013 3.43956 2.81158C3.7581 2.49303 4.06217 2.29394 4.48932 2.13105C4.81148 2.00797 5.29292 1.85594 6.18341 1.81612C7.14629 1.76906 7.43588 1.76182 9.86843 1.76182ZM9.86843 0.118408C7.39244 0.118408 7.08114 0.129268 6.10739 0.172706C5.13727 0.216144 4.47484 0.371798 3.89566 0.596229C3.29476 0.8279 2.78798 1.14283 2.2812 1.64961C1.77442 2.15639 1.46311 2.66679 1.22782 3.26406C1.00339 3.84324 0.847736 4.50568 0.804298 5.47942C0.76086 6.44954 0.75 6.76085 0.75 9.23683C0.75 11.7128 0.76086 12.0241 0.804298 12.9979C0.847736 13.968 1.00339 14.6304 1.22782 15.2132C1.45949 15.8141 1.77442 16.3209 2.2812 16.8277C2.78798 17.3345 3.29838 17.6458 3.89566 17.881C4.47484 18.1055 5.13727 18.2611 6.11101 18.3046C7.08476 18.348 7.39244 18.3589 9.87205 18.3589C12.3517 18.3589 12.6593 18.348 13.6331 18.3046C14.6032 18.2611 15.2656 18.1055 15.8484 17.881C16.4493 17.6494 16.9561 17.3345 17.4629 16.8277C17.9697 16.3209 18.281 15.8105 18.5163 15.2132C18.7407 14.634 18.8964 13.9716 18.9398 12.9979C18.9832 12.0241 18.9941 11.7164 18.9941 9.23683C18.9941 6.75723 18.9832 6.44954 18.9398 5.4758C18.8964 4.50568 18.7407 3.84324 18.5163 3.26044C18.2846 2.65955 17.9697 2.15277 17.4629 1.64599C16.9561 1.13921 16.4457 0.8279 15.8484 0.59261C15.2693 0.368178 14.6068 0.212524 13.6331 0.169086C12.6557 0.129268 12.3444 0.118408 9.86843 0.118408Z" fill="white"/>
<path d="M9.86843 1.76182C12.3046 1.76182 12.5906 1.77268 13.5534 1.81612C14.4439 1.85594 14.9254 2.00435 15.2475 2.13105C15.6747 2.29756 15.9788 2.49303 16.2973 2.81158C16.6158 3.13013 16.8149 3.4342 16.9778 3.86134C17.1009 4.18351 17.2529 4.66495 17.2928 5.55543C17.3362 6.51832 17.3471 6.80428 17.3471 9.24045C17.3471 11.6766 17.3362 11.9626 17.2928 12.9255C17.2529 13.8159 17.1045 14.2974 16.9778 14.6196C16.8113 15.0467 16.6158 15.3508 16.2973 15.6693C15.9788 15.9879 15.6747 16.187 15.2475 16.3498C14.9254 16.4729 14.4439 16.625 13.5534 16.6648C12.5906 16.7082 12.3046 16.7191 9.86843 16.7191C7.43226 16.7191 7.14629 16.7082 6.18341 16.6648C5.29292 16.625 4.81148 16.4765 4.48932 16.3498C4.06217 16.1833 3.7581 15.9879 3.43956 15.6693C3.12101 15.3508 2.92192 15.0467 2.75902 14.6196C2.63595 14.2974 2.48391 13.8159 2.44409 12.9255C2.40066 11.9626 2.3898 11.6766 2.3898 9.24045C2.3898 6.80428 2.40066 6.51832 2.44409 5.55543C2.48391 4.66495 2.63233 4.18351 2.75902 3.86134C2.92554 3.4342 3.12101 3.13013 3.43956 2.81158C3.7581 2.49303 4.06217 2.29394 4.48932 2.13105C4.81148 2.00797 5.29292 1.85594 6.18341 1.81612C7.14629 1.76906 7.43588 1.76182 9.86843 1.76182Z" fill="white"/>
<path d="M9.86769 4.5564C7.28311 4.5564 5.18359 6.65229 5.18359 9.24049C5.18359 11.8287 7.27949 13.9246 9.86769 13.9246C12.4559 13.9246 14.5518 11.8287 14.5518 9.24049C14.5518 6.65229 12.4559 4.5564 9.86769 4.5564ZM9.86769 12.2775C8.18808 12.2775 6.82701 10.9165 6.82701 9.23687C6.82701 7.55726 8.18808 6.19619 9.86769 6.19619C11.5473 6.19619 12.9084 7.55726 12.9084 9.23687C12.9084 10.9165 11.5473 12.2775 9.86769 12.2775Z" fill="#A4E0E3"/>
<path d="M14.7377 5.4613C15.3415 5.4613 15.8309 4.97186 15.8309 4.3681C15.8309 3.76434 15.3415 3.2749 14.7377 3.2749C14.134 3.2749 13.6445 3.76434 13.6445 4.3681C13.6445 4.97186 14.134 5.4613 14.7377 5.4613Z" fill="#A4E0E3"/>
</g>
<defs>
<clipPath id="clip0_1078_19834">
<rect width="18.2368" height="18.2368" fill="white" transform="translate(0.75 0.118408)"/>
</clipPath>
</defs>
</svg>
