<svg width="20" height="20" viewBox="0 0 20 20" fill="none" xmlns="http://www.w3.org/2000/svg">
<path d="M19.6448 1.68382V18.3162C19.6448 18.6964 19.4937 19.0611 19.2248 19.33C18.9559 19.5989 18.5912 19.75 18.211 19.75H1.5786C1.19833 19.75 0.833627 19.5989 0.564733 19.33C0.295838 19.0611 0.144775 18.6964 0.144775 18.3162L0.144775 1.68382C0.144775 1.30355 0.295838 0.938851 0.564733 0.669957C0.833627 0.401063 1.19833 0.25 1.5786 0.25L18.211 0.25C18.5912 0.25 18.9559 0.401063 19.2248 0.669957C19.4937 0.938851 19.6448 1.30355 19.6448 1.68382V1.68382ZM5.88007 7.70588H3.01242V16.8824H5.88007V7.70588ZM6.13816 4.55147C6.13967 4.33456 6.09844 4.11947 6.01682 3.91849C5.93521 3.71751 5.81481 3.53457 5.66249 3.38013C5.51017 3.22568 5.32893 3.10275 5.1291 3.01835C4.92927 2.93395 4.71478 2.88974 4.49786 2.88824H4.44625C4.00513 2.88824 3.58208 3.06347 3.27016 3.37539C2.95824 3.6873 2.78301 4.11035 2.78301 4.55147C2.78301 4.99259 2.95824 5.41564 3.27016 5.72756C3.58208 6.03947 4.00513 6.21471 4.44625 6.21471V6.21471C4.66317 6.22004 4.87903 6.18258 5.08148 6.10447C5.28392 6.02635 5.469 5.90911 5.62612 5.75945C5.78324 5.60978 5.90933 5.43063 5.99719 5.23221C6.08505 5.0338 6.13295 4.82002 6.13816 4.60309V4.55147ZM16.7771 11.3076C16.7771 8.54897 15.0221 7.47647 13.2786 7.47647C12.7077 7.44789 12.1393 7.56947 11.6301 7.82911C11.1209 8.08875 10.6887 8.47736 10.3765 8.95618H10.2962V7.70588H7.60066V16.8824H10.4683V12.0016C10.4269 11.5017 10.5843 11.0057 10.9065 10.6213C11.2286 10.2368 11.6895 9.99501 12.1889 9.94838H12.2979C13.2098 9.94838 13.8865 10.5219 13.8865 11.9672V16.8824H16.7542L16.7771 11.3076Z" fill="white"/>
</svg>
