<svg width="24" height="20" viewBox="0 0 24 20" fill="none" xmlns="http://www.w3.org/2000/svg">
<path fill-rule="evenodd" clip-rule="evenodd" d="M23.6302 9.65913C23.6302 8.15131 22.3982 6.92447 20.8835 6.92447C20.1907 6.92447 19.5586 7.18352 19.0749 7.60646C17.354 6.50581 15.0788 5.78959 12.5592 5.66421L13.8841 1.49499L17.499 2.34246C17.5395 3.55701 18.5419 4.53361 19.772 4.53361C21.0274 4.53361 22.0489 3.51691 22.0489 2.26681C22.0489 1.01671 21.0271 0 19.772 0C18.8601 0 18.0742 0.537628 17.7106 1.30972L13.6486 0.35824C13.3795 0.295415 13.1062 0.449672 13.0237 0.712204L11.4553 5.6479C8.77271 5.7003 6.33907 6.42159 4.51525 7.57037C4.03701 7.16828 3.41967 6.92447 2.74674 6.92447C1.23199 6.92474 0 8.15131 0 9.65913C0 10.6192 0.500531 11.4632 1.25401 11.9508C1.21561 12.1957 1.19494 12.4438 1.19494 12.6948C1.19494 16.5833 5.93709 19.7471 11.7668 19.7471C17.5959 19.7471 22.3386 16.5833 22.3386 12.6948C22.3386 12.462 22.3209 12.2318 22.2878 12.004C23.0894 11.5271 23.6302 10.656 23.6302 9.65913ZM19.7722 1.05387C20.4444 1.05387 20.9911 1.59845 20.9911 2.26761C20.9911 2.93677 20.4444 3.48108 19.7722 3.48108C19.0999 3.48108 18.5531 2.93677 18.5531 2.26761C18.5531 1.59845 19.0999 1.05387 19.7722 1.05387ZM2.74625 7.9778C1.81527 7.9778 1.05776 8.73224 1.05776 9.65912C1.05776 10.127 1.25083 10.5502 1.56205 10.8552C1.95974 9.87487 2.66489 8.97793 3.60714 8.21573C3.35446 8.06575 3.06069 7.9778 2.74625 7.9778ZM21.2808 12.6953C21.2808 16.0027 17.0123 18.694 11.7669 18.694C6.52076 18.694 2.25309 16.0029 2.25309 12.6953C2.25309 12.5788 2.25953 12.4638 2.26974 12.3491C2.30169 11.9976 2.38332 11.6538 2.50765 11.3207C2.83015 10.4571 3.44883 9.66474 4.29388 8.98917C4.56429 8.77288 4.85725 8.56863 5.17088 8.37802C6.88273 7.33778 9.20762 6.69616 11.7669 6.69616C14.3633 6.69616 16.7196 7.35596 18.4371 8.42293C18.7515 8.61782 19.0437 8.82689 19.3128 9.04798C20.1242 9.7134 20.7174 10.4892 21.0302 11.3327C21.1535 11.6669 21.2351 12.011 21.2657 12.3633C21.2751 12.4737 21.2808 12.5839 21.2808 12.6953ZM19.9664 8.24969C20.9081 9.02151 21.6117 9.92754 21.9981 10.918C22.3491 10.6101 22.5719 10.1604 22.5725 9.65912C22.5725 8.73197 21.815 7.9778 20.8837 7.9778C20.5454 7.9778 20.2307 8.07832 19.9664 8.24969Z" fill="white"/>
<path d="M9.90333 11.4273C9.90333 10.5392 9.17992 9.79413 8.28761 9.79413C7.39557 9.79413 6.64746 10.5392 6.64746 11.4273C6.64746 12.3152 7.39584 13.0362 8.28761 13.0362C9.17992 13.0351 9.90333 12.3152 9.90333 11.4273Z" fill="white"/>
<path d="M15.3672 9.79358C14.4751 9.79358 13.7246 10.5384 13.7246 11.4265C13.7246 12.3149 14.4751 13.0354 15.3672 13.0354C16.2595 13.0354 16.9834 12.3154 16.9834 11.4265C16.9829 10.5379 16.2595 9.79358 15.3672 9.79358Z" fill="white"/>
<path d="M14.9107 15.3266C14.3122 15.9217 13.3044 16.2107 11.8278 16.2107C11.8232 16.2107 11.8192 16.212 11.8149 16.212C11.8103 16.212 11.8066 16.2107 11.8023 16.2107C10.3254 16.2107 9.31733 15.9217 8.71959 15.3266C8.51309 15.1207 8.17798 15.1207 7.97148 15.3266C7.76472 15.5327 7.76472 15.8661 7.97148 16.0711C8.77732 16.8737 10.0305 17.2643 11.8023 17.2643C11.8068 17.2643 11.8106 17.2627 11.8149 17.2627C11.8192 17.2627 11.8232 17.2643 11.8278 17.2643C13.5992 17.2643 14.8527 16.8737 15.6594 16.0717C15.8664 15.8655 15.8664 15.5324 15.6599 15.3271C15.4529 15.1213 15.1177 15.1213 14.9107 15.3266Z" fill="white"/>
</svg>
