<svg width="18" height="16" viewBox="0 0 18 16" fill="none" xmlns="http://www.w3.org/2000/svg">
<path d="M16.1169 4.57488C16.124 4.73537 16.124 4.88856 16.124 5.04904C16.131 9.91465 12.5562 15.5316 6.01887 15.5316C4.09075 15.5316 2.1978 14.9553 0.572266 13.8757C0.853744 13.9122 1.13522 13.9268 1.4167 13.9268C3.01409 13.9268 4.56926 13.3724 5.82888 12.3438C4.30889 12.3146 2.97187 11.2861 2.50743 9.78334C3.04224 9.89276 3.59112 9.87088 4.11186 9.71769C2.45817 9.38213 1.26892 7.87211 1.26189 6.11408C1.26189 6.09949 1.26189 6.0849 1.26189 6.07031C1.75448 6.3548 2.3104 6.51529 2.87335 6.52988C1.31818 5.45025 0.832633 3.2983 1.77559 1.61321C3.58409 3.91835 6.24406 5.31165 9.10106 5.46484C8.81255 4.18826 9.20662 2.84602 10.1285 1.94147C11.557 0.548175 13.8088 0.621122 15.1599 2.10196C15.9551 1.94147 16.7221 1.63509 17.4188 1.2047C17.1513 2.05819 16.5954 2.78037 15.8565 3.23994C16.5602 3.1524 17.2499 2.95545 17.8973 2.66366C17.4188 3.40772 16.8136 4.04966 16.1169 4.57488Z" fill="white"/>
</svg>
