<svg width="322" height="118" viewBox="0 0 322 118" fill="none" xmlns="http://www.w3.org/2000/svg">
<g clip-path="url(#clip0_721_2970)">
<path d="M154.302 39.7154L143.661 71.0679C142.741 73.7827 140.188 75.6115 137.319 75.6115H137.285C132.613 75.6115 129.374 70.9435 131.015 66.5696L143.793 32.4268C145.43 28.0529 149.607 25.1571 154.279 25.1571C158.951 25.1571 163.133 28.0567 164.769 32.4343L177.521 66.5734C179.158 70.951 175.919 75.6115 171.251 75.6115C168.381 75.6115 165.829 73.7827 164.909 71.0604L154.302 39.7154Z" fill="#29394E"/>
<path d="M251.644 39.7154L241.003 71.0679C240.083 73.7827 237.531 75.6115 234.661 75.6115H234.627C229.956 75.6115 226.717 70.9435 228.357 66.5696L241.135 32.4268C242.772 28.0529 246.95 25.1571 251.621 25.1571C256.293 25.1571 260.475 28.0567 262.111 32.4343L274.863 66.5734C276.5 70.951 273.261 75.6115 268.593 75.6115C265.724 75.6115 263.171 73.7827 262.251 71.0604L251.644 39.7154Z" fill="#29394E"/>
<path d="M203.01 25.1539C206.588 25.1539 209.948 25.7233 213.085 26.8658C216.222 28.0083 218.96 29.6296 221.301 31.7299C223.643 33.8339 225.494 36.4921 226.851 39.7122C228.209 42.9323 228.888 46.488 228.888 50.3793C228.888 54.2705 228.209 57.83 226.851 61.0463C225.494 64.2664 223.643 66.9284 221.301 69.0287C218.96 71.1326 216.218 72.754 213.085 73.8927C209.948 75.0352 206.592 75.6046 203.01 75.6046H184.979C182.615 75.6046 180.699 73.6891 180.699 71.3249V29.4336C180.699 27.0694 182.615 25.1539 184.979 25.1539H203.01ZM203.01 63.286C206.637 63.286 209.601 62.2001 211.893 60.0245C214.186 57.8488 215.336 54.6363 215.336 50.383C215.336 46.1562 214.19 42.9474 211.893 40.7605C209.597 38.5735 206.637 37.48 203.01 37.48H196.506C195.597 37.48 194.862 38.2153 194.862 39.124V61.642C194.862 62.5508 195.597 63.286 196.506 63.286H203.01Z" fill="#29394E"/>
<path d="M306.498 61.129C304.564 62.543 302.248 63.2481 299.564 63.2481C296.17 63.2481 293.41 62.1433 291.272 59.9186C289.134 57.6978 288.067 54.5191 288.067 50.3828C288.067 46.254 289.138 43.0754 291.272 40.8545C293.41 38.6223 296.17 37.5175 299.564 37.5175C302.248 37.5175 304.564 38.2226 306.498 39.6479C306.901 39.942 307.278 40.2663 307.629 40.6169C309.737 42.7398 312.701 43.7842 315.694 43.7842C320.404 43.7842 323.247 38.4451 320.502 34.6217C320.215 34.222 319.914 33.8299 319.601 33.449C317.203 30.5117 314.284 28.2908 310.845 26.7751C307.414 25.2706 303.651 24.5052 299.571 24.5052C295.982 24.5052 292.637 25.1085 289.515 26.3075C286.393 27.5066 283.678 29.2071 281.371 31.3903C279.055 33.5735 277.242 36.2996 275.903 39.5687C274.572 42.8303 273.905 46.4387 273.905 50.379C273.905 54.3193 274.572 57.9278 275.903 61.1893C277.242 64.4622 279.055 67.1846 281.371 69.3678C283.674 71.5623 286.389 73.2515 289.515 74.4505C292.641 75.6496 295.985 76.2529 299.571 76.2529C303.651 76.2529 307.418 75.4912 310.845 73.983C314.284 72.4672 317.203 70.2463 319.601 67.309C319.91 66.932 320.208 66.5474 320.491 66.1552C323.247 62.3356 320.396 56.9889 315.687 56.9889H315.657C312.678 56.9889 309.729 58.0333 307.629 60.1486C307.275 60.5106 306.898 60.8311 306.498 61.129Z" fill="#29394E"/>
<path d="M129.907 89.6279L132.81 83.1538C132.965 82.8069 133.244 82.5957 133.636 82.5957H133.704C134.096 82.5957 134.364 82.8069 134.518 83.1538L137.422 89.6279C137.478 89.7297 137.501 89.8277 137.501 89.9182C137.501 90.2878 137.222 90.5781 136.852 90.5781C136.528 90.5781 136.306 90.3896 136.181 90.0992L135.544 88.6362H131.751L131.091 90.1445C130.978 90.4235 130.744 90.5781 130.454 90.5781C130.095 90.5781 129.816 90.2991 129.816 89.9409C129.816 89.8391 129.85 89.7373 129.907 89.6279ZM135.016 87.4183L133.644 84.2586L132.271 87.4183H135.016Z" fill="#29394E"/>
<path d="M139.533 83.3524C139.533 82.9716 139.834 82.6586 140.226 82.6586H140.37C140.705 82.6586 140.894 82.8245 141.082 83.0621L144.989 88.1185V83.3185C144.989 82.949 145.29 82.6473 145.66 82.6473C146.041 82.6473 146.342 82.949 146.342 83.3185V89.8793C146.342 90.2602 146.052 90.5618 145.671 90.5618H145.615C145.29 90.5618 145.09 90.3959 144.902 90.147L140.882 84.9474V89.902C140.882 90.2715 140.581 90.5731 140.211 90.5731C139.83 90.5731 139.529 90.2715 139.529 89.902V83.3524H139.533Z" fill="#29394E"/>
<path d="M148.561 86.6331V86.6105C148.561 84.4122 150.258 82.5721 152.656 82.5721C155.054 82.5721 156.728 84.3896 156.728 86.5916V86.6142C156.728 88.8125 155.031 90.6525 152.633 90.6525C150.235 90.6525 148.561 88.8313 148.561 86.6331ZM155.292 86.6331V86.6105C155.292 85.0909 154.187 83.8315 152.633 83.8315C151.084 83.8315 149.998 85.0721 149.998 86.5878V86.6105C149.998 88.13 151.102 89.3781 152.652 89.3781C154.206 89.3819 155.292 88.1526 155.292 86.6331Z" fill="#29394E"/>
<path d="M160.444 83.9788H158.547C158.189 83.9788 157.91 83.6885 157.91 83.3416C157.91 82.9947 158.189 82.7043 158.547 82.7043H163.736C164.083 82.7043 164.362 82.9947 164.362 83.3416C164.362 83.6885 164.083 83.9788 163.736 83.9788H161.828V89.8949C161.828 90.2757 161.515 90.5774 161.134 90.5774C160.753 90.5774 160.44 90.2757 160.44 89.8949L160.444 83.9788Z" fill="#29394E"/>
<path d="M166.307 83.3298C166.307 82.949 166.609 82.6473 167.001 82.6473C167.382 82.6473 167.683 82.949 167.683 83.3298V85.9541H171.413V83.3298C171.413 82.949 171.714 82.6473 172.095 82.6473C172.487 82.6473 172.789 82.949 172.789 83.3298V89.8906C172.789 90.2715 172.487 90.5731 172.095 90.5731C171.714 90.5731 171.413 90.2715 171.413 89.8906V87.2248H167.683V89.8906C167.683 90.2715 167.382 90.5731 167.001 90.5731C166.609 90.5731 166.307 90.2715 166.307 89.8906V83.3298Z" fill="#29394E"/>
<path d="M175.344 89.827V83.3981C175.344 83.006 175.646 82.7043 176.038 82.7043H180.582C180.917 82.7043 181.196 82.9834 181.196 83.3189C181.196 83.6658 180.917 83.9336 180.582 83.9336H176.721V85.9659H180.08C180.416 85.9659 180.695 86.2449 180.695 86.5918C180.695 86.9274 180.416 87.1951 180.08 87.1951H176.721V89.2916H180.638C180.974 89.2916 181.253 89.5706 181.253 89.9062C181.253 90.2531 180.974 90.5208 180.638 90.5208H176.038C175.646 90.517 175.344 90.2154 175.344 89.827Z" fill="#29394E"/>
<path d="M183.379 83.3981C183.379 83.006 183.681 82.7043 184.073 82.7043H186.863C187.844 82.7043 188.617 82.9947 189.118 83.4849C189.533 83.9072 189.767 84.4878 189.767 85.1703V85.1929C189.767 86.4448 189.043 87.2027 187.991 87.5269L189.488 89.4122C189.623 89.5781 189.71 89.7252 189.71 89.9364C189.71 90.3172 189.386 90.5736 189.05 90.5736C188.737 90.5736 188.537 90.4303 188.379 90.2154L186.482 87.7947H184.752V89.8911C184.752 90.2719 184.45 90.5736 184.069 90.5736C183.677 90.5736 183.375 90.2719 183.375 89.8911L183.379 83.3981ZM186.761 86.5805C187.746 86.5805 188.368 86.0677 188.368 85.2759V85.2533C188.368 84.4162 187.764 83.96 186.75 83.96H184.752V86.5843H186.761V86.5805Z" fill="#29394E"/>
<path d="M195.908 83.3981C195.908 83.006 196.209 82.7043 196.602 82.7043H198.822C201.277 82.7043 202.974 84.3898 202.974 86.5881V86.6107C202.974 88.8089 201.277 90.517 198.822 90.517H196.602C196.209 90.517 195.908 90.2154 195.908 89.8232V83.3981ZM198.819 89.269C200.459 89.269 201.53 88.1642 201.53 86.6333V86.6107C201.53 85.0836 200.459 83.9562 198.819 83.9562H197.28V89.269H198.819Z" fill="#29394E"/>
<path d="M204.354 89.6271L207.258 83.153C207.412 82.8061 207.695 82.5949 208.083 82.5949H208.151C208.543 82.5949 208.811 82.8061 208.966 83.153L211.869 89.6271C211.926 89.7289 211.948 89.8269 211.948 89.9174C211.948 90.2869 211.669 90.5773 211.3 90.5773C210.975 90.5773 210.753 90.3887 210.628 90.0984L209.991 88.6354H206.198L205.538 90.1437C205.425 90.4227 205.191 90.5773 204.901 90.5773C204.543 90.5773 204.264 90.2983 204.264 89.94C204.264 89.8382 204.298 89.7364 204.354 89.6271ZM209.463 87.4175L208.091 84.2578L206.718 87.4175H209.463Z" fill="#29394E"/>
<path d="M215.218 87.4814L212.529 83.7862C212.439 83.6543 212.375 83.4959 212.375 83.3074C212.375 82.9379 212.676 82.6475 213.068 82.6475C213.37 82.6475 213.57 82.8134 213.739 83.0623L215.915 86.1994L218.125 83.051C218.291 82.8059 218.494 82.6362 218.785 82.6362C219.184 82.6362 219.456 82.9379 219.456 83.3074C219.456 83.4959 219.365 83.6656 219.267 83.7976L216.601 87.4475V89.8908C216.601 90.2717 216.3 90.5733 215.908 90.5733C215.527 90.5733 215.225 90.2717 215.225 89.8908V87.4814H215.218Z" fill="#29394E"/>
<path d="M224.798 89.6271L227.702 83.153C227.856 82.8061 228.139 82.5949 228.528 82.5949H228.595C228.988 82.5949 229.255 82.8061 229.41 83.153L232.313 89.6271C232.37 89.7289 232.392 89.8269 232.392 89.9174C232.392 90.2869 232.113 90.5773 231.744 90.5773C231.42 90.5773 231.197 90.3887 231.073 90.0984L230.436 88.6354H226.642L225.982 90.1437C225.869 90.4227 225.636 90.5773 225.345 90.5773C224.987 90.5773 224.708 90.2983 224.708 89.94C224.708 89.8382 224.742 89.7364 224.798 89.6271ZM229.911 87.4175L228.539 84.2578L227.166 87.4175H229.911Z" fill="#29394E"/>
<path d="M234.428 83.3528C234.428 82.972 234.729 82.659 235.121 82.659H235.265C235.6 82.659 235.789 82.8249 235.977 83.0625L239.884 88.1188V83.3189C239.884 82.9493 240.185 82.6477 240.555 82.6477C240.936 82.6477 241.237 82.9493 241.237 83.3189V89.8797C241.237 90.2605 240.947 90.5622 240.566 90.5622H240.51C240.185 90.5622 239.985 90.3963 239.797 90.1474L235.777 84.9478V89.9023C235.777 90.2718 235.476 90.5735 235.106 90.5735C234.725 90.5735 234.424 90.2718 234.424 89.9023V83.3528H234.428Z" fill="#29394E"/>
<path d="M243.455 86.6333V86.6106C243.455 84.4124 245.152 82.5723 247.55 82.5723C249.948 82.5723 251.622 84.3898 251.622 86.5918V86.6144C251.622 88.8127 249.925 90.6527 247.527 90.6527C245.129 90.6527 243.455 88.8315 243.455 86.6333ZM250.186 86.6333V86.6106C250.186 85.0911 249.081 83.8317 247.527 83.8317C245.974 83.8317 244.892 85.0722 244.892 86.588V86.6106C244.892 88.1302 245.996 89.3783 247.55 89.3783C249.103 89.382 250.186 88.1528 250.186 86.6333Z" fill="#29394E"/>
<path d="M255.335 83.9792H253.438C253.08 83.9792 252.801 83.6888 252.801 83.3419C252.801 82.995 253.08 82.7047 253.438 82.7047H258.626C258.973 82.7047 259.252 82.995 259.252 83.3419C259.252 83.6888 258.973 83.9792 258.626 83.9792H256.718V89.8952C256.718 90.2761 256.405 90.5777 256.025 90.5777C255.644 90.5777 255.331 90.2761 255.331 89.8952V83.9792H255.335Z" fill="#29394E"/>
<path d="M261.206 83.3302C261.206 82.9493 261.508 82.6477 261.9 82.6477C262.281 82.6477 262.582 82.9493 262.582 83.3302V85.9545H266.311V83.3302C266.311 82.9493 266.613 82.6477 266.994 82.6477C267.382 82.6477 267.688 82.9493 267.688 83.3302V89.891C267.688 90.2718 267.386 90.5735 266.994 90.5735C266.613 90.5735 266.311 90.2718 266.311 89.891V87.2252H262.582V89.891C262.582 90.2718 262.281 90.5735 261.9 90.5735C261.508 90.5735 261.206 90.2718 261.206 89.891V83.3302Z" fill="#29394E"/>
<path d="M270.241 89.8274V83.3985C270.241 83.0064 270.542 82.7047 270.935 82.7047H275.478C275.814 82.7047 276.093 82.9837 276.093 83.3193C276.093 83.6662 275.814 83.9339 275.478 83.9339H271.617V85.9663H274.977C275.312 85.9663 275.591 86.2453 275.591 86.5922C275.591 86.9278 275.312 87.1955 274.977 87.1955H271.617V89.2919H275.535C275.87 89.2919 276.149 89.571 276.149 89.9066C276.149 90.2535 275.87 90.5212 275.535 90.5212H270.935C270.542 90.5174 270.241 90.2158 270.241 89.8274Z" fill="#29394E"/>
<path d="M278.274 83.3985C278.274 83.0064 278.576 82.7047 278.968 82.7047H281.758C282.739 82.7047 283.512 82.995 284.013 83.4852C284.424 83.9075 284.662 84.4882 284.662 85.1707V85.1933C284.662 86.4451 283.938 87.203 282.886 87.5273L284.383 89.4126C284.515 89.5785 284.605 89.7256 284.605 89.9367C284.605 90.3176 284.281 90.574 283.945 90.574C283.632 90.574 283.432 90.4307 283.274 90.2157L281.378 87.795H279.647V89.8915C279.647 90.2723 279.345 90.574 278.964 90.574C278.572 90.574 278.271 90.2723 278.271 89.8915V83.3985H278.274ZM281.653 86.5809C282.637 86.5809 283.259 86.0681 283.259 85.2763V85.2536C283.259 84.4166 282.656 83.9603 281.641 83.9603H279.643V86.5847H281.653V86.5809Z" fill="#29394E"/>
<path d="M290.458 86.6333V86.6106C290.458 84.3898 292.12 82.5723 294.485 82.5723C295.691 82.5723 296.483 82.9305 297.162 83.4547C297.305 83.5678 297.429 83.7563 297.429 84.0014C297.429 84.3822 297.128 84.6726 296.747 84.6726C296.558 84.6726 296.423 84.6047 296.336 84.5368C295.8 84.1032 295.22 83.8355 294.473 83.8355C292.988 83.8355 291.894 85.0647 291.894 86.5918V86.6144C291.894 88.1415 292.976 89.382 294.473 89.382C295.299 89.382 295.857 89.1143 296.426 88.6355C296.528 88.545 296.671 88.4771 296.841 88.4771C297.188 88.4771 297.49 88.7674 297.49 89.1143C297.49 89.3255 297.388 89.4952 297.267 89.6045C296.532 90.253 295.695 90.6527 294.432 90.6527C292.151 90.6527 290.458 88.8768 290.458 86.6333Z" fill="#29394E"/>
<path d="M299.021 86.6333V86.6106C299.021 84.4124 300.718 82.5723 303.116 82.5723C305.518 82.5723 307.189 84.3898 307.189 86.5918V86.6144C307.189 88.8127 305.492 90.6527 303.094 90.6527C300.696 90.6527 299.021 88.8315 299.021 86.6333ZM305.752 86.6333V86.6106C305.752 85.0911 304.647 83.8317 303.094 83.8317C301.544 83.8317 300.462 85.0722 300.462 86.588V86.6106C300.462 88.1302 301.567 89.3783 303.116 89.3783C304.67 89.382 305.752 88.1528 305.752 86.6333Z" fill="#29394E"/>
<path d="M309.487 83.3302C309.487 82.9493 309.788 82.6477 310.181 82.6477C310.561 82.6477 310.863 82.9493 310.863 83.3302V89.891C310.863 90.2718 310.561 90.5735 310.181 90.5735C309.792 90.5735 309.487 90.2718 309.487 89.891V83.3302Z" fill="#29394E"/>
<path d="M313.505 83.3528C313.505 82.972 313.807 82.659 314.199 82.659H314.342C314.678 82.659 314.866 82.8249 315.055 83.0625L318.961 88.1188V83.3189C318.961 82.9493 319.263 82.6477 319.632 82.6477C320.013 82.6477 320.315 82.9493 320.315 83.3189V89.8797C320.315 90.2605 320.024 90.5622 319.643 90.5622H319.587C319.263 90.5622 319.063 90.3963 318.874 90.1474L314.859 84.9478V89.9023C314.859 90.2718 314.557 90.5735 314.187 90.5735C313.807 90.5735 313.505 90.2718 313.505 89.9023V83.3528Z" fill="#29394E"/>
<path d="M106.996 90.6084C106.604 90.6084 106.204 90.5028 105.842 90.2804C104.805 89.6432 104.485 88.2857 105.122 87.2526C110.333 78.7914 113.085 69.0368 113.085 59.0447C113.085 32.8277 94.3756 10.5095 68.596 5.98105C67.3969 5.7699 66.5976 4.62741 66.8087 3.43213C67.0199 2.23308 68.1624 1.43371 69.3577 1.64486C82.6867 3.9864 94.8771 10.996 103.678 21.3764C112.584 31.8775 117.486 45.2594 117.486 59.0485C117.486 69.855 114.507 80.4089 108.866 89.564C108.459 90.2389 107.735 90.6084 106.996 90.6084Z" fill="url(#paint0_linear_721_2970)"/>
<path d="M97.55 89.7785C97.0937 89.7785 96.63 89.6352 96.2378 89.3411C95.2612 88.6134 95.0614 87.2334 95.7891 86.2606C101.683 78.3498 104.801 68.9384 104.801 59.0444C104.801 40.6551 93.851 24.1588 76.9059 17.0172C75.7861 16.5459 75.2582 15.2526 75.7333 14.1327C76.2046 13.0129 77.4979 12.4888 78.6178 12.9601C97.1993 20.7916 109.205 38.883 109.205 59.0444C109.205 69.8962 105.785 80.2163 99.3222 88.8924C98.8848 89.4731 98.2212 89.7785 97.55 89.7785Z" fill="url(#paint1_linear_721_2970)"/>
<path d="M88.8024 88.2142C88.2745 88.2142 87.7428 88.0256 87.3205 87.641C86.4231 86.8228 86.359 85.4277 87.1773 84.5303C93.542 77.5509 97.0449 68.5015 97.0449 59.0486C97.0449 41.2513 84.4247 25.6825 67.0385 22.025C65.847 21.7762 65.0853 20.6073 65.3379 19.4158C65.5868 18.2243 66.7557 17.4664 67.9472 17.7152C77.287 19.6797 85.7859 24.8454 91.8754 32.266C98.0517 39.7883 101.453 49.3016 101.453 59.0486C101.453 69.6025 97.5389 79.7077 90.4351 87.4977C89.9977 87.9728 89.4019 88.2142 88.8024 88.2142Z" fill="url(#paint2_linear_721_2970)"/>
<path d="M91.5748 61.2467C90.3569 61.2467 89.3728 60.2626 89.3728 59.0447C89.3728 42.4126 75.8401 28.8799 59.208 28.8799C56.9531 28.8799 54.7096 29.1287 52.5302 29.6189C51.3462 29.8866 50.166 29.1438 49.8983 27.9561C49.6306 26.7683 50.3734 25.5919 51.5612 25.3242C54.0535 24.7624 56.6289 24.4758 59.208 24.4758C78.2683 24.4758 93.7768 39.9843 93.7768 59.0447C93.7768 60.2626 92.7927 61.2467 91.5748 61.2467Z" fill="url(#paint3_linear_721_2970)"/>
<path d="M83.7824 61.2468C82.5645 61.2468 81.5803 60.2627 81.5803 59.0448C81.5803 46.7112 71.5468 36.6738 59.2094 36.6738C57.9915 36.6738 57.0073 35.6897 57.0073 34.4718C57.0073 33.2539 57.9915 32.2698 59.2094 32.2698C73.9713 32.2698 85.9844 44.2791 85.9844 59.0448C85.9844 60.2627 85.0003 61.2468 83.7824 61.2468Z" fill="url(#paint4_linear_721_2970)"/>
<path d="M72.5573 71.0578C72.1048 71.0578 71.6486 70.9183 71.2527 70.628C70.2723 69.9078 70.0649 68.5278 70.7851 67.5512C72.6101 65.0739 73.5716 62.1328 73.5716 59.0485C73.5716 51.1302 67.1276 44.6863 59.2094 44.6863C57.9915 44.6863 57.0073 43.7021 57.0073 42.4842C57.0073 41.2663 57.9915 40.2822 59.2094 40.2822C69.5559 40.2822 77.9719 48.6982 77.9719 59.0447C77.9719 63.0793 76.7125 66.9215 74.3257 70.1604C73.8996 70.7487 73.2322 71.0578 72.5573 71.0578Z" fill="url(#paint5_linear_721_2970)"/>
<path d="M59.2155 117.33C37.561 117.33 17.8105 105.43 7.6714 86.2757C7.10204 85.2011 7.51303 83.87 8.58765 83.3007C9.66228 82.7313 10.9933 83.1423 11.5627 84.2169C20.9364 101.927 39.1974 112.93 59.2155 112.93C71.9262 112.93 84.2674 108.42 93.9616 100.231C94.893 99.4464 96.2805 99.5633 97.0648 100.491C97.8491 101.418 97.7322 102.81 96.8046 103.594C86.3148 112.451 72.9669 117.33 59.2155 117.33Z" fill="url(#paint6_linear_721_2970)"/>
<path d="M59.2098 109.039C38.1623 109.039 19.249 95.7359 12.1452 75.9365C11.7342 74.7903 12.3299 73.5309 13.4724 73.1199C14.6187 72.7089 15.8781 73.3046 16.2891 74.4471C22.767 92.5008 40.0175 104.635 59.2098 104.635C71.1513 104.635 82.4443 100.05 90.9998 91.7203C91.8708 90.8719 93.2659 90.8907 94.1143 91.7617C94.9627 92.6327 94.9438 94.0279 94.0728 94.8763C84.6878 104.009 72.3089 109.039 59.2098 109.039Z" fill="url(#paint7_linear_721_2970)"/>
<path d="M59.2114 101.283C39.1066 101.283 21.6826 86.9886 17.78 67.2985C17.5425 66.107 18.3192 64.9457 19.5108 64.7119C20.7023 64.4781 21.8636 65.2511 22.0974 66.4426C25.5927 84.0815 41.1993 96.8789 59.2114 96.8789C66.6169 96.8789 73.7886 94.741 79.9497 90.6951C80.9678 90.0277 82.3327 90.3105 83.0001 91.3248C83.6675 92.3429 83.3848 93.7078 82.3705 94.3752C75.4891 98.8962 67.4804 101.283 59.2114 101.283Z" fill="url(#paint8_linear_721_2970)"/>
<path d="M59.2129 93.6136C47.0263 93.6136 35.6089 87.0866 29.4138 76.578C28.7954 75.5298 29.1461 74.1799 30.1943 73.5615C31.2426 72.9431 32.5924 73.2938 33.2108 74.342C38.6179 83.5121 48.5836 89.2095 59.2167 89.2095C68.2812 89.2095 76.7801 85.1863 82.5416 78.1767C83.3146 77.2378 84.7022 77.1021 85.641 77.8713C86.5799 78.6443 86.7157 80.0318 85.9464 80.9707C79.3404 89.0059 69.6009 93.6136 59.2129 93.6136Z" fill="url(#paint9_linear_721_2970)"/>
<path d="M59.2112 85.82C48.2576 85.82 38.5143 79.263 34.3931 69.1125C33.9368 67.9851 34.4798 66.7031 35.6034 66.2431C36.7308 65.7868 38.0128 66.3298 38.4729 67.4534C41.9154 75.9335 50.0561 81.416 59.2112 81.416C66.2886 81.416 72.7966 78.1733 77.0687 72.5211C77.804 71.5521 79.184 71.3598 80.1531 72.0913C81.1221 72.8228 81.3144 74.2066 80.5829 75.1756C75.47 81.9401 67.6799 85.82 59.2112 85.82Z" fill="url(#paint10_linear_721_2970)"/>
<path d="M59.2096 77.8109C53.2672 77.8109 47.615 74.9528 44.0895 70.1641C43.3694 69.1837 43.5767 67.8075 44.5571 67.0873C45.5374 66.3671 46.9137 66.5745 47.6339 67.5548C50.3337 71.2199 54.6585 73.4106 59.2059 73.4106C60.4238 73.4106 61.4079 74.3947 61.4079 75.6126C61.4079 76.8305 60.4276 77.8109 59.2096 77.8109Z" fill="url(#paint11_linear_721_2970)"/>
<path d="M4.69408 74.4663C3.70241 74.4663 2.80124 73.7876 2.55615 72.7808C1.47398 68.3089 0.927246 63.6861 0.927246 59.0445C0.927246 26.9077 27.0726 0.762329 59.2094 0.762329C60.4273 0.762329 61.4115 1.74646 61.4115 2.96436C61.4115 4.18226 60.4273 5.16639 59.2094 5.16639C29.5009 5.16639 5.32754 29.3359 5.32754 59.0445C5.32754 63.3392 5.8328 67.6113 6.83201 71.7477C7.11857 72.9279 6.39085 74.1194 5.20688 74.4059C5.04097 74.4474 4.86375 74.4663 4.69408 74.4663Z" fill="url(#paint12_linear_721_2970)"/>
<path d="M12.0726 69.1872C11.0168 69.1872 10.0855 68.4256 9.90451 67.3472C9.44827 64.621 9.21826 61.827 9.21826 59.0443C9.21826 31.4775 31.6458 9.0537 59.2089 9.0537C59.9856 9.0537 60.7737 9.07255 61.5467 9.10648C62.7608 9.16304 63.6997 10.1924 63.6431 11.4066C63.5866 12.6207 62.5496 13.5633 61.3431 13.503C60.638 13.4691 59.9178 13.454 59.2089 13.454C34.0703 13.454 13.6223 33.9057 13.6223 59.0406C13.6223 61.5819 13.8335 64.1309 14.2482 66.6195C14.4481 67.8185 13.6374 68.9535 12.4384 69.1533C12.3177 69.1797 12.1933 69.1872 12.0726 69.1872Z" fill="url(#paint13_linear_721_2970)"/>
<path d="M19.1713 61.2461C17.9534 61.2461 16.9692 60.262 16.9692 59.0441C16.9692 48.3545 20.9698 38.155 28.2358 30.3234C35.4603 22.5334 45.2525 17.7824 55.8064 16.9416C57.013 16.8435 58.0801 17.7485 58.1744 18.9626C58.2724 20.173 57.3675 21.2363 56.1533 21.3306C36.648 22.884 21.3695 39.4521 21.3695 59.0441C21.3733 60.262 20.3892 61.2461 19.1713 61.2461Z" fill="url(#paint14_linear_721_2970)"/>
<path d="M26.8869 63.0031C25.7256 63.0031 24.7528 62.0944 24.6887 60.918C24.6547 60.2996 24.6396 59.6699 24.6396 59.044C24.6396 47.0459 30.7216 36.081 40.9098 29.7125C41.9429 29.0677 43.3004 29.3807 43.9451 30.4138C44.5899 31.4432 44.2769 32.8044 43.2438 33.4492C34.3527 39.007 29.0437 48.5768 29.0437 59.0478C29.0437 59.5945 29.0588 60.145 29.089 60.6842C29.1531 61.8983 28.2217 62.9352 27.0076 62.9994C26.9661 62.9994 26.9284 63.0031 26.8869 63.0031Z" fill="url(#paint15_linear_721_2970)"/>
<path d="M34.6399 61.5896C33.4371 61.5896 32.4567 60.6243 32.4379 59.4177C32.4379 59.2933 32.4341 59.1689 32.4341 59.0482C32.4341 48.3322 38.7989 38.6719 48.6439 34.4375C49.76 33.9586 51.0571 34.4752 51.5359 35.5913C52.0148 36.7074 51.4982 38.0045 50.3821 38.4834C42.1509 42.0202 36.8344 50.0893 36.8344 59.0482C36.8344 59.1538 36.8344 59.2556 36.8381 59.3612C36.8532 60.5791 35.8804 61.5745 34.6663 61.5934C34.6587 61.5896 34.6512 61.5896 34.6399 61.5896Z" fill="url(#paint16_linear_721_2970)"/>
<path d="M42.6493 61.2466C41.4314 61.2466 40.4473 60.2625 40.4473 59.0446C40.4473 53.5244 42.8642 48.3059 47.076 44.7314C48.0036 43.9433 49.3911 44.0602 50.1792 44.984C50.9672 45.9116 50.8504 47.2992 49.9266 48.0872C46.7027 50.8247 44.8513 54.8177 44.8513 59.0408C44.8513 60.2625 43.8634 61.2466 42.6493 61.2466Z" fill="url(#paint17_linear_721_2970)"/>
</g>
<defs>
<linearGradient id="paint0_linear_721_2970" x1="119.472" y1="79.8696" x2="74.9181" y2="5.53109" gradientUnits="userSpaceOnUse">
<stop stop-color="#231F20" stop-opacity="0"/>
<stop offset="1" stop-color="#231F20"/>
</linearGradient>
<linearGradient id="paint1_linear_721_2970" x1="105.857" y1="79.3682" x2="85.9184" y2="22.7528" gradientUnits="userSpaceOnUse">
<stop stop-color="#231F20" stop-opacity="0"/>
<stop offset="1" stop-color="#231F20"/>
</linearGradient>
<linearGradient id="paint2_linear_721_2970" x1="97.7771" y1="78.0001" x2="76.6078" y2="25.3231" gradientUnits="userSpaceOnUse">
<stop stop-color="#231F20" stop-opacity="0"/>
<stop offset="1" stop-color="#231F20"/>
</linearGradient>
<linearGradient id="paint3_linear_721_2970" x1="93.8642" y1="56.4233" x2="63.5873" y2="28.6079" gradientUnits="userSpaceOnUse">
<stop stop-color="#231F20" stop-opacity="0"/>
<stop offset="1" stop-color="#231F20"/>
</linearGradient>
<linearGradient id="paint4_linear_721_2970" x1="81.2935" y1="50.6741" x2="63.0781" y2="39.3511" gradientUnits="userSpaceOnUse">
<stop stop-color="#231F20" stop-opacity="0"/>
<stop offset="1" stop-color="#231F20"/>
</linearGradient>
<linearGradient id="paint5_linear_721_2970" x1="76.0954" y1="65.2488" x2="61.08" y2="38.418" gradientUnits="userSpaceOnUse">
<stop stop-color="#231F20" stop-opacity="0"/>
<stop offset="1" stop-color="#231F20"/>
</linearGradient>
<linearGradient id="paint6_linear_721_2970" x1="21.6296" y1="91.0983" x2="95.1066" y2="116.206" gradientUnits="userSpaceOnUse">
<stop stop-color="#231F20" stop-opacity="0"/>
<stop offset="1" stop-color="#231F20"/>
</linearGradient>
<linearGradient id="paint7_linear_721_2970" x1="20.9402" y1="84.6632" x2="85.0634" y2="103.863" gradientUnits="userSpaceOnUse">
<stop stop-color="#231F20" stop-opacity="0"/>
<stop offset="1" stop-color="#231F20"/>
</linearGradient>
<linearGradient id="paint8_linear_721_2970" x1="22.8946" y1="76.6291" x2="66.3159" y2="95.9752" gradientUnits="userSpaceOnUse">
<stop stop-color="#231F20" stop-opacity="0"/>
<stop offset="1" stop-color="#231F20"/>
</linearGradient>
<linearGradient id="paint9_linear_721_2970" x1="38.4026" y1="83.7684" x2="81.1104" y2="81.7992" gradientUnits="userSpaceOnUse">
<stop stop-color="#231F20" stop-opacity="0"/>
<stop offset="1" stop-color="#231F20"/>
</linearGradient>
<linearGradient id="paint10_linear_721_2970" x1="42.9258" y1="75.6703" x2="82.4335" y2="78.1319" gradientUnits="userSpaceOnUse">
<stop stop-color="#231F20" stop-opacity="0"/>
<stop offset="1" stop-color="#231F20"/>
</linearGradient>
<linearGradient id="paint11_linear_721_2970" x1="49.0268" y1="71.7728" x2="67.2422" y2="74.7267" gradientUnits="userSpaceOnUse">
<stop stop-color="#231F20" stop-opacity="0"/>
<stop offset="1" stop-color="#231F20"/>
</linearGradient>
<linearGradient id="paint12_linear_721_2970" x1="46.7444" y1="-1.2132" x2="0.467467" y2="69.8022" gradientUnits="userSpaceOnUse">
<stop stop-color="#231F20" stop-opacity="0"/>
<stop offset="1" stop-color="#231F20"/>
</linearGradient>
<linearGradient id="paint13_linear_721_2970" x1="47.4838" y1="11.7146" x2="12.5299" y2="62.4223" gradientUnits="userSpaceOnUse">
<stop stop-color="#231F20" stop-opacity="0"/>
<stop offset="1" stop-color="#231F20"/>
</linearGradient>
<linearGradient id="paint14_linear_721_2970" x1="47.4336" y1="18.9135" x2="21.0951" y2="55.5904" gradientUnits="userSpaceOnUse">
<stop stop-color="#231F20" stop-opacity="0"/>
<stop offset="1" stop-color="#231F20"/>
</linearGradient>
<linearGradient id="paint15_linear_721_2970" x1="37.4259" y1="32.7985" x2="29.9183" y2="58.5216" gradientUnits="userSpaceOnUse">
<stop stop-color="#231F20" stop-opacity="0"/>
<stop offset="1" stop-color="#231F20"/>
</linearGradient>
<linearGradient id="paint16_linear_721_2970" x1="44.811" y1="39.0613" x2="36.811" y2="56.6613" gradientUnits="userSpaceOnUse">
<stop stop-color="#231F20" stop-opacity="0"/>
<stop offset="1" stop-color="#231F20"/>
</linearGradient>
<linearGradient id="paint17_linear_721_2970" x1="46.986" y1="46.1369" x2="43.6629" y2="59.183" gradientUnits="userSpaceOnUse">
<stop stop-color="#231F20" stop-opacity="0"/>
<stop offset="1" stop-color="#231F20"/>
</linearGradient>
<clipPath id="clip0_721_2970">
<rect width="320.648" height="116.568" fill="white" transform="translate(0.927246 0.762329)"/>
</clipPath>
</defs>
</svg>
