<svg width="1512" height="982" viewBox="0 0 1512 982" fill="none" xmlns="http://www.w3.org/2000/svg">
<g opacity="0.12" clip-path="url(#clip0_1157_17620)">
<path d="M901.038 1029.28C897.875 1026.71 895.379 1023.28 893.943 1019.16C889.795 1007.3 896.071 994.335 907.919 990.203C1004.83 956.356 1090.48 896.161 1155.6 816.113C1326.5 606.05 1322.05 305.279 1145.03 100.963C1136.81 91.483 1137.84 77.0965 1147.34 68.8889C1156.82 60.6679 1171.19 61.6812 1179.41 71.1915C1270.95 176.842 1322.93 312.434 1325.79 452.987C1328.68 595.182 1280.77 734.344 1190.89 844.82C1120.45 931.409 1027.8 996.535 922.917 1033.15C915.177 1035.83 906.969 1034.11 901.038 1029.28Z" fill="url(#paint0_linear_1157_17620)"/>
<path d="M830.754 961.047C827.097 958.071 824.315 953.919 823.068 948.99C819.99 936.822 827.369 924.454 839.55 921.36C938.34 896.408 1024.66 841.323 1089.16 762.033C1209.02 614.704 1228.82 411.164 1139.6 243.472C1133.7 232.379 1137.9 218.602 1148.99 212.706C1160.09 206.81 1173.85 211.026 1179.76 222.103C1277.59 405.998 1255.87 629.194 1124.45 790.74C1053.73 877.674 959.067 938.101 850.698 965.472C843.459 967.303 836.141 965.429 830.754 961.047Z" fill="url(#paint1_linear_1157_17620)"/>
<path d="M770.874 891.499C766.624 888.041 763.606 883.068 762.749 877.223C760.897 864.793 769.459 853.225 781.873 851.359C878.361 836.909 965.433 787.257 1027.06 711.508C1143.05 568.924 1143.44 361.916 1027.98 219.279C1020.08 209.509 1021.59 195.193 1031.33 187.293C1041.1 179.389 1055.41 180.923 1063.32 190.646C1125.36 267.265 1159.74 364.059 1160.18 463.195C1160.63 563.705 1125.88 662.082 1062.33 740.202C993.534 824.765 896.325 880.215 788.596 896.334C782.01 897.328 775.651 895.385 770.874 891.499Z" fill="url(#paint2_linear_1157_17620)"/>
<path d="M968.877 693.5C959.141 685.579 957.653 671.255 965.587 661.502C1074.01 528.225 1053.79 331.609 920.517 223.185C902.461 208.497 882.833 195.841 862.2 185.599C850.969 180.021 846.364 166.365 851.956 155.117C857.547 143.869 871.19 139.281 882.438 144.872C906.093 156.615 928.566 171.091 949.241 187.911C1101.96 312.149 1125.14 537.49 1000.9 690.206C992.94 699.962 978.63 701.434 968.877 693.5Z" fill="url(#paint3_linear_1157_17620)"/>
<path d="M906.429 642.697C896.693 634.776 895.205 620.452 903.139 610.699C983.539 511.87 968.544 366.043 869.715 285.644C859.979 277.723 858.491 263.399 866.425 253.646C874.346 243.91 888.67 242.422 898.422 250.356C1016.71 346.584 1034.65 521.092 938.424 639.377C930.493 649.159 916.182 650.631 906.429 642.697Z" fill="url(#paint4_linear_1157_17620)"/>
<path d="M752.536 648.118C748.912 645.169 746.149 641.06 744.892 636.178C741.755 624.016 749.054 611.611 761.216 608.474C791.965 600.526 818.87 583.237 838.986 558.509C890.598 495.067 880.973 401.464 817.531 349.853C807.795 341.932 806.307 327.608 814.241 317.855C822.175 308.102 836.486 306.631 846.239 314.565C929.137 382.005 941.714 504.319 874.274 587.217C847.979 619.539 812.832 642.114 772.613 652.514C765.318 654.382 757.956 652.527 752.536 648.118Z" fill="url(#paint5_linear_1157_17620)"/>
<path d="M343.993 931.883C170.487 790.731 89.8071 566.637 133.411 347.064C135.857 334.735 147.836 326.74 160.135 329.189C172.463 331.635 180.458 343.615 178.009 355.913C137.699 558.92 212.291 766.098 372.701 896.595C474.544 979.447 602.797 1023.75 733.87 1021.33C746.436 1021.1 756.792 1031.08 757.028 1043.65C757.263 1056.22 747.278 1066.57 734.712 1066.81C592.91 1069.42 454.156 1021.5 343.993 931.883Z" fill="url(#paint6_linear_1157_17620)"/>
<path d="M398.045 865.443C229.414 728.258 164.58 498.383 236.708 293.418C240.878 281.562 253.871 275.35 265.711 279.507C277.555 283.693 283.78 296.67 279.623 308.51C213.849 495.4 272.979 705.029 426.765 830.138C522.448 907.978 642.794 944.832 765.639 933.891C778.159 932.77 789.195 942.021 790.3 954.528C791.404 967.035 782.169 978.084 769.663 979.189C634.942 991.2 502.969 950.801 398.045 865.443Z" fill="url(#paint7_linear_1157_17620)"/>
<path d="M448.578 803.313C287.477 672.253 241.033 444.171 338.131 260.944C344.009 249.847 357.779 245.608 368.862 251.504C379.958 257.382 384.197 271.152 378.302 282.235C291.328 446.321 332.942 650.625 477.256 768.028C536.596 816.303 607.996 845.917 683.745 853.662C696.239 854.928 705.345 866.114 704.062 878.595C702.795 891.089 691.623 900.178 679.129 898.911C594.545 890.248 514.805 857.19 448.578 803.313Z" fill="url(#paint8_linear_1157_17620)"/>
<path d="M498.573 741.868C400.93 662.434 352.001 535.706 370.863 411.125C372.742 398.719 384.331 390.161 396.754 392.053C409.16 393.933 417.719 405.522 415.826 417.945C399.366 526.684 442.062 637.281 527.267 706.597C599.885 765.674 694.205 788.855 786.05 770.217C798.353 767.714 810.358 775.674 812.86 787.976C815.363 800.279 807.404 812.283 795.102 814.786C689.874 836.144 581.784 809.563 498.573 741.868Z" fill="url(#paint9_linear_1157_17620)"/>
<path d="M549.379 679.413C461.604 608.007 426.303 491.954 459.441 383.78C463.128 371.776 475.854 365.018 487.841 368.692C499.844 372.379 506.599 385.075 502.928 397.091C475.222 487.483 504.727 584.446 578.07 644.112C634.758 690.229 708.051 706.68 779.127 689.243C791.334 686.251 803.634 693.712 806.639 705.903C809.63 718.11 802.169 730.41 789.979 733.415C704.931 754.297 617.22 734.603 549.379 679.413Z" fill="url(#paint10_linear_1157_17620)"/>
<path d="M601.584 615.249C553.99 576.53 527.345 516.772 530.306 455.419C530.903 442.873 541.576 433.186 554.108 433.799C566.671 434.41 576.341 445.07 575.728 457.602C573.463 504.573 593.851 550.316 630.292 579.961C640.028 587.882 641.516 602.206 633.582 611.959C625.648 621.712 611.321 623.17 601.584 615.249Z" fill="url(#paint11_linear_1157_17620)"/>
<path d="M186.577 233.088C178.62 226.614 175.814 215.324 180.434 205.641C200.921 162.79 226.65 122.177 256.913 84.9783C466.389 -172.514 846.297 -211.578 1103.81 -2.08857C1113.54 5.83213 1115.03 20.1563 1107.1 29.909C1099.16 39.6618 1084.85 41.1333 1075.1 33.1992C837.062 -160.449 485.848 -124.35 292.187 113.702C264.203 148.1 240.393 185.647 221.461 225.274C216.044 236.609 202.466 241.387 191.131 235.971C189.465 235.191 187.944 234.2 186.577 233.088Z" fill="url(#paint12_linear_1157_17620)"/>
<path d="M280.118 238.908C271.65 232.019 269.159 219.836 274.719 210.041C288.833 185.221 305.188 161.348 323.348 139.025C503.031 -81.8448 828.893 -115.352 1049.76 64.3314C1055.99 69.3974 1062.18 74.6787 1068.15 79.998C1077.52 88.3635 1078.33 102.742 1069.95 112.103C1061.59 121.477 1047.13 122.254 1037.85 113.91C1032.39 109.036 1026.75 104.226 1021.05 99.5893C819.638 -64.2657 522.488 -33.7111 358.633 167.703C342.068 188.065 327.129 209.86 314.27 232.498C308.071 243.416 294.182 247.229 283.248 241.017C282.115 240.424 281.073 239.685 280.118 238.908Z" fill="url(#paint13_linear_1157_17620)"/>
<path d="M388.773 221.571C379.037 213.65 377.549 199.326 385.483 189.573C455.161 103.924 553.694 48.2925 662.963 32.9054C771.638 17.6097 881.074 43.3425 971.117 105.398C981.444 112.458 984.054 126.682 976.935 137.015C969.815 147.348 955.651 149.952 945.318 142.832C778.895 28.1403 548.493 61.2816 420.784 218.264C412.837 228.034 398.509 229.492 388.773 221.571Z" fill="url(#paint14_linear_1157_17620)"/>
<path d="M439.14 285.926C429.832 278.354 427.977 264.716 435.136 254.908C438.906 249.734 442.889 244.57 446.95 239.578C525.165 143.434 645.369 95.2209 768.489 110.595C780.967 112.15 789.79 123.516 788.248 135.977C786.707 148.439 775.327 157.278 762.865 155.737C655.405 142.316 550.495 184.382 482.237 268.285C478.686 272.651 475.209 277.16 471.902 281.697C464.508 291.862 450.274 294.08 440.139 286.684C439.78 286.419 439.453 286.18 439.14 285.926Z" fill="url(#paint15_linear_1157_17620)"/>
<path d="M510.46 325.11C500.822 317.27 499.263 303.134 506.985 293.373C507.773 292.371 508.577 291.383 509.394 290.378C579.26 204.498 693.211 168.582 799.704 198.874C811.772 202.313 818.787 214.892 815.365 226.973C811.926 239.041 799.347 246.056 787.266 242.634C698.284 217.334 603.078 247.337 544.698 319.099C544.015 319.939 543.345 320.763 542.678 321.616C534.889 331.46 520.583 333.127 510.74 325.338C510.624 325.244 510.542 325.177 510.46 325.11Z" fill="url(#paint16_linear_1157_17620)"/>
<path d="M576.842 374.57C567.106 366.649 565.618 352.325 573.552 342.572C609.537 298.339 662.895 272.291 719.957 271.104C732.52 270.839 742.906 280.821 743.155 293.37C743.42 305.933 733.438 316.319 720.888 316.568C677.202 317.467 636.365 337.412 608.823 371.266C600.906 381.032 586.595 382.504 576.842 374.57Z" fill="url(#paint17_linear_1157_17620)"/>
</g>
<defs>
<linearGradient id="paint0_linear_1157_17620" x1="1071.06" y1="1024.57" x2="1198.63" y2="138.53" gradientUnits="userSpaceOnUse">
<stop stop-color="#FBB92F" stop-opacity="0"/>
<stop offset="1" stop-color="#F9BB17"/>
</linearGradient>
<linearGradient id="paint1_linear_1157_17620" x1="965.167" y1="931.789" x2="1174.45" y2="348.205" gradientUnits="userSpaceOnUse">
<stop stop-color="#FBCE68" stop-opacity="0"/>
<stop offset="1" stop-color="#FBD263"/>
</linearGradient>
<linearGradient id="paint2_linear_1157_17620" x1="909.359" y1="868.148" x2="1083.1" y2="308.098" gradientUnits="userSpaceOnUse">
<stop stop-color="#FBB92F" stop-opacity="0"/>
<stop offset="1" stop-color="white"/>
</linearGradient>
<linearGradient id="paint3_linear_1157_17620" x1="1018.67" y1="669.78" x2="957.388" y2="249.563" gradientUnits="userSpaceOnUse">
<stop stop-color="#FBB92F" stop-opacity="0"/>
<stop offset="1" stop-color="#F9BB17"/>
</linearGradient>
<linearGradient id="paint4_linear_1157_17620" x1="955.414" y1="541.775" x2="883.273" y2="332.318" gradientUnits="userSpaceOnUse">
<stop stop-color="#FBCE68" stop-opacity="0"/>
<stop offset="1" stop-color="#FBD263"/>
</linearGradient>
<linearGradient id="paint5_linear_1157_17620" x1="818.778" y1="624.667" x2="873.358" y2="311.817" gradientUnits="userSpaceOnUse">
<stop stop-color="#FBB92F" stop-opacity="0"/>
<stop offset="1" stop-color="white"/>
</linearGradient>
<linearGradient id="paint6_linear_1157_17620" x1="213.836" y1="476.704" x2="638.899" y2="1156.81" gradientUnits="userSpaceOnUse">
<stop stop-color="#FBCE68" stop-opacity="0"/>
<stop offset="1" stop-color="#FBD263"/>
</linearGradient>
<linearGradient id="paint7_linear_1157_17620" x1="250.291" y1="420.696" x2="638.916" y2="992.501" gradientUnits="userSpaceOnUse">
<stop stop-color="#FBB92F" stop-opacity="0"/>
<stop offset="1" stop-color="white"/>
</linearGradient>
<linearGradient id="paint8_linear_1157_17620" x1="318.296" y1="369.049" x2="540.099" y2="807.086" gradientUnits="userSpaceOnUse">
<stop stop-color="#FBB92F" stop-opacity="0"/>
<stop offset="1" stop-color="#F9BB17"/>
</linearGradient>
<linearGradient id="paint9_linear_1157_17620" x1="395.999" y1="527.342" x2="751.024" y2="789.942" gradientUnits="userSpaceOnUse">
<stop stop-color="#FBCE68" stop-opacity="0"/>
<stop offset="1" stop-color="#FBD263"/>
</linearGradient>
<linearGradient id="paint10_linear_1157_17620" x1="485.053" y1="491.932" x2="785.557" y2="769.175" gradientUnits="userSpaceOnUse">
<stop stop-color="#FBB92F" stop-opacity="0"/>
<stop offset="1" stop-color="white"/>
</linearGradient>
<linearGradient id="paint11_linear_1157_17620" x1="559.369" y1="500.475" x2="686.063" y2="642.874" gradientUnits="userSpaceOnUse">
<stop stop-color="#FBB92F" stop-opacity="0"/>
<stop offset="1" stop-color="#F9BB17"/>
</linearGradient>
<linearGradient id="paint12_linear_1157_17620" x1="1016.8" y1="-99.1685" x2="183.125" y2="168.187" gradientUnits="userSpaceOnUse">
<stop stop-color="#FBB92F" stop-opacity="0"/>
<stop offset="1" stop-color="white"/>
</linearGradient>
<linearGradient id="paint13_linear_1157_17620" x1="938.466" y1="9.25452" x2="327.881" y2="187.704" gradientUnits="userSpaceOnUse">
<stop stop-color="#FBB92F" stop-opacity="0"/>
<stop offset="1" stop-color="#F9BB17"/>
</linearGradient>
<linearGradient id="paint14_linear_1157_17620" x1="891.163" y1="66.6356" x2="441.062" y2="188.823" gradientUnits="userSpaceOnUse">
<stop stop-color="#FBCE68" stop-opacity="0"/>
<stop offset="1" stop-color="#FBD263"/>
</linearGradient>
<linearGradient id="paint15_linear_1157_17620" x1="720.458" y1="112.62" x2="492.635" y2="269.785" gradientUnits="userSpaceOnUse">
<stop stop-color="#FBB92F" stop-opacity="0"/>
<stop offset="1" stop-color="white"/>
</linearGradient>
<linearGradient id="paint16_linear_1157_17620" x1="738.807" y1="210.946" x2="559.987" y2="299.817" gradientUnits="userSpaceOnUse">
<stop stop-color="#FBB92F" stop-opacity="0"/>
<stop offset="1" stop-color="#F9BB17"/>
</linearGradient>
<linearGradient id="paint17_linear_1157_17620" x1="710.105" y1="281.791" x2="598.441" y2="364.661" gradientUnits="userSpaceOnUse">
<stop stop-color="#FBCE68" stop-opacity="0"/>
<stop offset="1" stop-color="#FBD263"/>
</linearGradient>
<clipPath id="clip0_1157_17620">
<rect width="1204" height="1204" fill="white" transform="translate(668.809 -397) rotate(39.1292)"/>
</clipPath>
</defs>
</svg>
