<svg width="179" height="210" viewBox="0 0 179 210" fill="none" xmlns="http://www.w3.org/2000/svg">
    <path d="M10.6981 209.925C7.8788 209.925 5.31966 208.004 4.62324 205.134C1.55227 192.431 0 179.299 0 166.118C0 74.8191 74.2739 0.545227 165.572 0.545227C169.029 0.545227 171.823 3.3477 171.823 6.79625C171.823 10.2448 169.021 13.0473 165.572 13.0473C81.171 13.0473 12.5104 81.7078 12.5104 166.109C12.5104 178.309 13.9452 190.45 16.7897 202.189C17.6035 205.545 15.5395 208.927 12.1748 209.741C11.6798 209.866 11.1847 209.925 10.6981 209.925Z" fill="url(#paint0_linear_1912_29086)"/>
    <path d="M31.6645 194.931C28.6607 194.931 26.0176 192.766 25.5058 189.704C24.2136 181.959 23.5508 174.022 23.5508 166.118C23.5508 87.8081 87.2609 24.098 165.571 24.098C167.777 24.098 170.018 24.1483 172.208 24.249C175.656 24.4084 178.324 27.3368 178.165 30.7853C178.006 34.2339 175.06 36.9189 171.629 36.7427C169.623 36.6504 167.584 36.6 165.562 36.6C94.1496 36.6 36.0528 94.6968 36.0528 166.109C36.0528 173.334 36.6486 180.575 37.8316 187.64C38.4022 191.046 36.1032 194.268 32.6966 194.839C32.3526 194.906 32.0085 194.931 31.6645 194.931Z" fill="url(#paint1_linear_1912_29086)"/>
    <path d="M51.837 172.369C48.38 172.369 45.5859 169.566 45.5859 166.118C45.5859 135.752 56.9552 106.779 77.5962 84.5272C98.1281 62.4011 125.943 48.9006 155.923 46.5092C159.355 46.2239 162.375 48.7999 162.652 52.2484C162.929 55.6886 160.361 58.7092 156.913 58.9777C101.501 63.3912 58.0964 110.454 58.0964 166.118C58.088 169.575 55.2855 172.369 51.837 172.369Z" fill="url(#paint2_linear_1912_29086)"/>
    <path d="M73.7446 177.361C70.4387 177.361 67.6782 174.777 67.502 171.437C67.4097 169.675 67.3594 167.888 67.3594 166.118C67.3594 132.027 84.6357 100.881 113.575 82.7905C116.503 80.9613 120.363 81.8507 122.192 84.779C124.021 87.7074 123.132 91.5671 120.204 93.3962C94.9478 109.187 79.8698 136.373 79.8698 166.118C79.8698 167.67 79.9118 169.231 79.9957 170.775C80.1803 174.223 77.5288 177.168 74.0803 177.353C73.9712 177.353 73.8621 177.361 73.7446 177.361Z" fill="url(#paint3_linear_1912_29086)"/>
    <path d="M95.7711 173.342C92.3561 173.342 89.5621 170.598 89.5201 167.175C89.5117 166.823 89.5117 166.47 89.5117 166.118C89.5117 135.668 107.585 108.231 135.568 96.2071C138.74 94.8478 142.423 96.3078 143.782 99.4879C145.15 102.66 143.682 106.343 140.502 107.702C117.125 117.746 102.022 140.677 102.022 166.118C102.022 166.412 102.022 166.705 102.031 167.007C102.081 170.464 99.312 173.3 95.8634 173.342C95.8299 173.342 95.7963 173.342 95.7711 173.342Z" fill="url(#paint4_linear_1912_29086)"/>
    <path d="M118.517 172.369C115.06 172.369 112.266 169.566 112.266 166.118C112.266 150.436 119.129 135.618 131.094 125.457C133.729 123.216 137.672 123.544 139.913 126.178C142.145 128.813 141.826 132.757 139.191 134.997C130.029 142.775 124.776 154.119 124.776 166.118C124.768 169.575 121.974 172.369 118.517 172.369Z" fill="url(#paint5_linear_1912_29086)"/>
    <defs>
    <linearGradient id="paint0_linear_1912_29086" x1="130.16" y1="-5.06659" x2="-1.30442" y2="196.676" gradientUnits="userSpaceOnUse">
    <stop stop-color="#FBB92F" stop-opacity="0"/>
    <stop offset="1" stop-color="white"/>
    </linearGradient>
    <linearGradient id="paint1_linear_1912_29086" x1="132.266" y1="31.6633" x2="32.9677" y2="175.715" gradientUnits="userSpaceOnUse">
    <stop stop-color="white" stop-opacity="0"/>
    <stop offset="1" stop-color="#F9BB19"/>
    </linearGradient>
    <linearGradient id="paint2_linear_1912_29086" x1="132.13" y1="52.1162" x2="57.3073" y2="156.309" gradientUnits="userSpaceOnUse">
    <stop stop-color="#F9BB19"/>
    <stop offset="1" stop-color="white"/>
    </linearGradient>
    <linearGradient id="paint3_linear_1912_29086" x1="103.69" y1="91.5564" x2="82.3623" y2="164.631" gradientUnits="userSpaceOnUse">
    <stop stop-color="#FBB92F" stop-opacity="0"/>
    <stop offset="1" stop-color="white"/>
    </linearGradient>
    <linearGradient id="paint4_linear_1912_29086" x1="124.676" y1="109.35" x2="101.949" y2="159.348" gradientUnits="userSpaceOnUse">
    <stop stop-color="#FBB92F" stop-opacity="0"/>
    <stop offset="1" stop-color="#F9BB17"/>
    </linearGradient>
    <linearGradient id="paint5_linear_1912_29086" x1="130.845" y1="129.447" x2="121.404" y2="166.508" gradientUnits="userSpaceOnUse">
    <stop stop-color="#FBCE68" stop-opacity="0"/>
    <stop offset="1" stop-color="#FBD263"/>
    </linearGradient>
    </defs>
    </svg>